<svg width="25" height="24" viewBox="0 0 25 24" fill="none" xmlns="http://www.w3.org/2000/svg">
<path fill-rule="evenodd" clip-rule="evenodd" d="M12.4608 3C15.8142 3 18.571 5.64434 18.7106 8.9948L18.8942 13.4023C18.9383 14.4607 19.1503 15.5054 19.5223 16.4973L19.9541 17.6489C20.1481 18.166 19.8861 18.7424 19.3689 18.9363C19.2567 18.9784 19.1377 19 19.0178 19H5.90381C5.35152 19 4.90381 18.5523 4.90381 18C4.90381 17.8801 4.92538 17.7612 4.96748 17.6489L5.39934 16.4973C5.77129 15.5054 5.98328 14.4607 6.02738 13.4023L6.21102 8.9948C6.35063 5.64434 9.10745 3 12.4608 3ZM15.4608 20V21.2H10.4608V20H15.4608ZM7.42374 8.82649C7.64359 6.2231 9.824 4.2 12.4608 4.2C15.1709 4.2 17.3988 6.33705 17.5116 9.04475L17.6953 13.4523L17.7226 13.896C17.8068 14.9293 18.0342 15.9466 18.3987 16.9186L18.7288 17.8H6.19181L6.52293 16.9186L6.67074 16.4993C6.99594 15.515 7.18312 14.4895 7.22634 13.4523L7.40998 9.04475L7.42374 8.82649Z" fill="#1A1A1A"/>
</svg>
