<svg width="17" height="16" viewBox="0 0 17 16" fill="none" xmlns="http://www.w3.org/2000/svg">
<path fill-rule="evenodd" clip-rule="evenodd" d="M8.46387 5C9.01615 5 9.46387 4.55228 9.46387 4C9.46387 3.44772 9.01615 3 8.46387 3C7.91158 3 7.46387 3.44772 7.46387 4C7.46387 4.55228 7.91158 5 8.46387 5Z" fill="#1A1A1A"/>
<path fill-rule="evenodd" clip-rule="evenodd" d="M8.46387 9C9.01615 9 9.46387 8.55228 9.46387 8C9.46387 7.44772 9.01615 7 8.46387 7C7.91158 7 7.46387 7.44772 7.46387 8C7.46387 8.55228 7.91158 9 8.46387 9Z" fill="#1A1A1A"/>
<path fill-rule="evenodd" clip-rule="evenodd" d="M8.46387 13C9.01615 13 9.46387 12.5523 9.46387 12C9.46387 11.4477 9.01615 11 8.46387 11C7.91158 11 7.46387 11.4477 7.46387 12C7.46387 12.5523 7.91158 13 8.46387 13Z" fill="#1A1A1A"/>
</svg>
