<svg width="40" height="40" viewBox="0 0 40 40" fill="none" xmlns="http://www.w3.org/2000/svg">
<path fill-rule="evenodd" clip-rule="evenodd" d="M20 15C20.8284 15 21.5 14.3284 21.5 13.5C21.5 12.6716 20.8284 12 20 12C19.1716 12 18.5 12.6716 18.5 13.5C18.5 14.3284 19.1716 15 20 15Z" fill="#2C3238"/>
<path fill-rule="evenodd" clip-rule="evenodd" d="M20 21.5C20.8284 21.5 21.5 20.8284 21.5 20C21.5 19.1716 20.8284 18.5 20 18.5C19.1716 18.5 18.5 19.1716 18.5 20C18.5 20.8284 19.1716 21.5 20 21.5Z" fill="#2C3238"/>
<path fill-rule="evenodd" clip-rule="evenodd" d="M20 28C20.8284 28 21.5 27.3284 21.5 26.5C21.5 25.6716 20.8284 25 20 25C19.1716 25 18.5 25.6716 18.5 26.5C18.5 27.3284 19.1716 28 20 28Z" fill="#2C3238"/>
</svg>
