<svg width="40" height="40" viewBox="0 0 40 40" fill="none" xmlns="http://www.w3.org/2000/svg">
<path fill-rule="evenodd" clip-rule="evenodd" d="M26.0656 18.1578C26.0656 13.7904 22.5252 10.25 18.1578 10.25C13.7904 10.25 10.25 13.7904 10.25 18.1578C10.25 22.5252 13.7904 26.0656 18.1578 26.0656C20.1135 26.0656 21.9035 25.3557 23.2839 24.1794L28.8553 29.75L29.75 28.8553L24.1794 23.2839C25.3557 21.9035 26.0656 20.1135 26.0656 18.1578ZM11.5144 18.1578C11.5144 14.4892 14.4884 11.5153 18.157 11.5153C21.8256 11.5153 24.7996 14.4892 24.7996 18.1578C24.7996 21.8264 21.8256 24.8004 18.157 24.8004C14.4884 24.8004 11.5144 21.8264 11.5144 18.1578Z" fill="#1A1A1A" stroke="#1A1A1A"/>
</svg>
