<svg width="17" height="16" viewBox="0 0 17 16" fill="none" xmlns="http://www.w3.org/2000/svg">
<path d="M5.93415 3H3.03754C2.70261 3 2.4353 3.27419 2.46632 3.58744C2.63616 5.30865 3.23972 6.94147 4.22612 8.35863C5.3448 9.96597 6.91828 11.2486 8.76265 12.0565C10.1843 12.6791 11.7065 13 13.2592 13C13.4788 13 13.7048 12.992 13.9448 12.976C14.244 12.9557 14.4692 12.7076 14.4638 12.4234L14.4551 12.3373L13.9499 9.59361C13.901 9.32854 13.6603 9.13816 13.3863 9.14425C12.7934 9.15908 12.1248 9.07387 11.4949 8.91172L11.1114 8.80585C10.9024 8.76403 10.6893 8.83869 10.5566 8.99575L10.5049 9.06801L10.0738 9.78313L9.65389 9.59209C8.4705 9.02926 7.44463 8.193 6.66524 7.15892L6.47558 6.89633L6.2209 6.51701L6.90885 5.85911C7.07477 5.69853 7.11827 5.45868 7.01902 5.24591C6.76002 4.68661 6.58446 4.09486 6.49728 3.48515C6.46179 3.23558 6.26914 3.04636 6.02704 3.00739L5.93415 3Z" fill="#1A1A1A"/>
<mask id="mask0_28_3364" style="mask-type:alpha" maskUnits="userSpaceOnUse" x="2" y="3" width="13" height="10">
<path d="M5.93415 3H3.03754C2.70261 3 2.4353 3.27419 2.46632 3.58744C2.63616 5.30865 3.23972 6.94147 4.22612 8.35863C5.3448 9.96597 6.91828 11.2486 8.76265 12.0565C10.1843 12.6791 11.7065 13 13.2592 13C13.4788 13 13.7048 12.992 13.9448 12.976C14.244 12.9557 14.4692 12.7076 14.4638 12.4234L14.4551 12.3373L13.9499 9.59361C13.901 9.32854 13.6603 9.13816 13.3863 9.14425C12.7934 9.15908 12.1248 9.07387 11.4949 8.91172L11.1114 8.80585C10.9024 8.76403 10.6893 8.83869 10.5566 8.99575L10.5049 9.06801L10.0738 9.78313L9.65389 9.59209C8.4705 9.02926 7.44463 8.193 6.66524 7.15892L6.47558 6.89633L6.2209 6.51701L6.90885 5.85911C7.07477 5.69853 7.11827 5.45868 7.01902 5.24591C6.76002 4.68661 6.58446 4.09486 6.49728 3.48515C6.46179 3.23558 6.26914 3.04636 6.02704 3.00739L5.93415 3Z" fill="white"/>
</mask>
<g mask="url(#mask0_28_3364)">
</g>
</svg>
