<svg width="29" height="28" viewBox="0 0 29 28" fill="none" xmlns="http://www.w3.org/2000/svg">
<path fill-rule="evenodd" clip-rule="evenodd" d="M22.5591 6.8C22.5591 6.35817 22.2009 6 21.7591 6H19.3591C18.9173 6 18.5591 6.35817 18.5591 6.8V22.2C18.5591 22.6418 18.9173 23 19.3591 23H21.7591C22.2009 23 22.5591 22.6418 22.5591 22.2V6.8ZM15.7591 11C16.2009 11 16.5591 11.3582 16.5591 11.8V22.2C16.5591 22.6418 16.2009 23 15.7591 23H13.3591C12.9173 23 12.5591 22.6418 12.5591 22.2V11.8C12.5591 11.3582 12.9173 11 13.3591 11H15.7591ZM9.75908 15C10.2009 15 10.5591 15.3582 10.5591 15.8V22.2C10.5591 22.6418 10.2009 23 9.75908 23H7.35908C6.91725 23 6.55908 22.6418 6.55908 22.2V15.8C6.55908 15.3582 6.91725 15 7.35908 15H9.75908Z" fill="#2C3238"/>
</svg>
