<svg width="29" height="28" viewBox="0 0 29 28" fill="none" xmlns="http://www.w3.org/2000/svg">
<path fill-rule="evenodd" clip-rule="evenodd" d="M8.62769 14C8.62769 14.5523 8.17997 15 7.62769 15C7.0754 15 6.62769 14.5523 6.62769 14C6.62769 13.4477 7.0754 13 7.62769 13C8.17997 13 8.62769 13.4477 8.62769 14ZM15.6277 14C15.6277 14.5523 15.18 15 14.6277 15C14.0754 15 13.6277 14.5523 13.6277 14C13.6277 13.4477 14.0754 13 14.6277 13C15.18 13 15.6277 13.4477 15.6277 14ZM22.6277 14C22.6277 14.5523 22.18 15 21.6277 15C21.0754 15 20.6277 14.5523 20.6277 14C20.6277 13.4477 21.0754 13 21.6277 13C22.18 13 22.6277 13.4477 22.6277 14Z" fill="#2C3238"/>
</svg>
