<svg width="36" height="36" viewBox="0 0 36 36" fill="none" xmlns="http://www.w3.org/2000/svg">
<path d="M28.7368 12.4063V9.52632C28.7368 8.13684 27.6 7 26.2105 7H8.52632C7.12421 7 6 8.13684 6 9.52632V27.2105C6 28.6 7.12421 29.7368 8.52632 29.7368H26.2105C27.6 29.7368 28.7368 28.6 28.7368 27.2105V24.3305C29.4821 23.8884 30 23.0926 30 22.1579V14.5789C30 13.6442 29.4821 12.8484 28.7368 12.4063ZM27.4737 14.5789V22.1579H18.6316V14.5789H27.4737ZM8.52632 27.2105V9.52632H26.2105V12.0526H18.6316C17.2421 12.0526 16.1053 13.1895 16.1053 14.5789V22.1579C16.1053 23.5474 17.2421 24.6842 18.6316 24.6842H26.2105V27.2105H8.52632Z" fill="black"/>
<path d="M22.4211 20.2632C23.4675 20.2632 24.3158 19.4149 24.3158 18.3684C24.3158 17.322 23.4675 16.4737 22.4211 16.4737C21.3747 16.4737 20.5264 17.322 20.5264 18.3684C20.5264 19.4149 21.3747 20.2632 22.4211 20.2632Z" fill="black"/>
</svg>
