<svg width="24" height="24" viewBox="0 0 24 24" fill="none" xmlns="http://www.w3.org/2000/svg">
<path fill-rule="evenodd" clip-rule="evenodd" d="M6.17064 13.927C4.85984 15.2438 4.8316 17.407 6.10734 18.76C7.38211 20.112 9.47784 20.1421 10.7886 18.8253L18.8706 10.7466L19.6857 11.6111L11.6038 19.6898C9.83038 21.471 6.99452 21.4308 5.26886 19.6013C3.54417 17.7699 3.58215 14.8428 5.35553 13.0626L14.462 3.9545C15.7533 2.65679 17.8189 2.68594 19.0751 4.01984C20.3324 5.35172 20.3041 7.48373 19.0128 8.78144L10.8247 16.9858C10.0154 17.799 8.72019 17.7809 7.93234 16.9446C7.14449 16.1093 7.163 14.7734 7.97227 13.9602L15.1359 6.78512L15.9501 7.64859L8.78738 14.8247C8.44069 15.1725 8.4329 15.7464 8.76985 16.1033C9.10778 16.4611 9.6619 16.4692 10.0096 16.1214L18.1977 7.91697C19.0265 7.08367 19.045 5.7156 18.2376 4.86018C17.4313 4.00476 16.1059 3.98566 15.2771 4.81796L6.17064 13.927Z" fill="#1A1A1A"/>
</svg>
