<svg width="25" height="24" viewBox="0 0 25 24" fill="none" xmlns="http://www.w3.org/2000/svg">
<path fill-rule="evenodd" clip-rule="evenodd" d="M19.2958 8.57006L20.8938 10.1681L13.321 17.7407L11.0688 18.3949L11.723 16.1427L19.2958 8.57006ZM10.5677 15.4595L18.8376 7.18979C19.0906 6.93674 19.5009 6.93674 19.754 7.18979L22.2741 9.70987C22.5271 9.96292 22.5271 10.3732 22.2741 10.6263L14.0042 18.896L10.2926 19.9741C9.94894 20.0739 9.58941 19.8763 9.48959 19.5326C9.45529 19.4145 9.45529 19.2892 9.48959 19.1711L10.5677 15.4595Z" fill="#1A1A1A"/>
<path fill-rule="evenodd" clip-rule="evenodd" d="M9.46387 8.8C8.46975 8.8 7.66387 7.99411 7.66387 7C7.66387 6.00589 8.46975 5.2 9.46387 5.2C10.458 5.2 11.2639 6.00589 11.2639 7C11.2639 7.99411 10.458 8.8 9.46387 8.8ZM9.46387 10C7.80701 10 6.46387 8.65685 6.46387 7C6.46387 5.34315 7.80701 4 9.46387 4C11.1207 4 12.4639 5.34315 12.4639 7C12.4639 8.65685 11.1207 10 9.46387 10Z" fill="#1A1A1A"/>
<path fill-rule="evenodd" clip-rule="evenodd" d="M7.46387 12.6H10.9639V11.4H7.46387C4.92336 11.4 2.86387 13.4595 2.86387 16V18H4.06387V16C4.06387 14.1222 5.5861 12.6 7.46387 12.6Z" fill="#1A1A1A"/>
</svg>
