<svg width="25" height="24" viewBox="0 0 25 24" fill="none" xmlns="http://www.w3.org/2000/svg">
<path fill-rule="evenodd" clip-rule="evenodd" d="M12.4639 3C17.4344 3 21.4639 7.02944 21.4639 12C21.4639 16.9706 17.4344 21 12.4639 21C7.4933 21 3.46387 16.9706 3.46387 12C3.46387 7.02944 7.4933 3 12.4639 3ZM6.54001 6.92467C5.36999 8.28884 4.66311 10.0619 4.66311 12C4.66311 16.3078 8.15529 19.8 12.4631 19.8C14.4012 19.8 16.1743 19.0931 17.5384 17.9231L6.54001 6.92467ZM7.38859 6.0762L18.3869 17.0745C19.5565 15.7105 20.2631 13.9377 20.2631 12C20.2631 7.69218 16.7709 4.2 12.4631 4.2C10.5254 4.2 8.75266 4.9066 7.38859 6.0762Z" fill="#1A1A1A"/>
</svg>
