<svg width="25" height="24" viewBox="0 0 25 24" fill="none" xmlns="http://www.w3.org/2000/svg">
<path fill-rule="evenodd" clip-rule="evenodd" d="M20.4639 6.2H4.46387C4.02204 6.2 3.66387 6.55817 3.66387 7V9H21.2639V7C21.2639 6.55817 20.9057 6.2 20.4639 6.2ZM3.66387 17V11H21.2639V17C21.2639 17.4418 20.9057 17.8 20.4639 17.8H4.46387C4.02204 17.8 3.66387 17.4418 3.66387 17ZM4.46387 5C3.3593 5 2.46387 5.89543 2.46387 7V17C2.46387 18.1046 3.3593 19 4.46387 19H20.4639C21.5684 19 22.4639 18.1046 22.4639 17V7C22.4639 5.89543 21.5684 5 20.4639 5H4.46387ZM6.46387 13C5.91158 13 5.46387 13.4477 5.46387 14V15C5.46387 15.5523 5.91158 16 6.46387 16H8.46387C9.01615 16 9.46387 15.5523 9.46387 15V14C9.46387 13.4477 9.01615 13 8.46387 13H6.46387Z" fill="#1A1A1A"/>
</svg>
