<svg width="25" height="24" viewBox="0 0 25 24" fill="none" xmlns="http://www.w3.org/2000/svg">
<path fill-rule="evenodd" clip-rule="evenodd" d="M14.5357 4C14.8032 4 15.053 4.13369 15.2014 4.35627L16.9637 7H21.1639C21.6057 7 21.9639 7.35817 21.9639 7.8V19.2C21.9639 19.6418 21.6057 20 21.1639 20H3.76387C3.32204 20 2.96387 19.6418 2.96387 19.2V7.8C2.96387 7.35817 3.32204 7 3.76387 7H7.96387L9.72637 4.35624C9.87475 4.13368 10.1245 4 10.392 4H14.5357ZM15.9639 13C15.9639 11.067 14.3969 9.5 12.4639 9.5C10.5309 9.5 8.96387 11.067 8.96387 13C8.96387 14.933 10.5309 16.5 12.4639 16.5C14.3969 16.5 15.9639 14.933 15.9639 13Z" fill="#1A1A1A"/>
</svg>
