<svg width="25" height="24" viewBox="0 0 25 24" fill="none" xmlns="http://www.w3.org/2000/svg">
<path fill-rule="evenodd" clip-rule="evenodd" d="M9.15783 5.38267C10.1823 4.86521 11.3145 4.59706 12.4622 4.60005L12.4638 4.60005H12.9175C14.7258 4.70379 16.433 5.46882 17.714 6.74982C18.995 8.03082 19.76 9.73805 19.8638 11.5463V12L19.8638 12.0016C19.8667 13.1493 19.5986 14.2815 19.0811 15.306L19.08 15.3082C18.4657 16.5373 17.5214 17.571 16.3528 18.2937C15.1843 19.0164 13.8375 19.3995 12.4635 19.4L12.4622 19.4C11.3145 19.403 10.1823 19.1348 9.15783 18.6174C9.03949 18.5576 8.90469 18.5387 8.77448 18.5636L5.21937 19.2444L5.90015 15.6893C5.92509 15.5591 5.90619 15.4243 5.84642 15.306C5.32896 14.2815 5.06081 13.1493 5.0638 12.0016L5.06381 12.0003C5.06434 10.6263 5.4474 9.27955 6.17007 8.11096C6.89275 6.94237 7.92651 5.99807 9.15556 5.38381L9.15556 5.38381L9.15783 5.38267ZM8.61795 4.31097C9.81057 3.7088 11.1285 3.39669 12.4646 3.40005H12.9344C12.9454 3.40005 12.9564 3.40035 12.9674 3.40096C15.0766 3.51733 17.0688 4.40759 18.5625 5.90129C20.0562 7.395 20.9465 9.38718 21.0628 11.4964C21.0634 11.5074 21.0638 11.5184 21.0638 11.5294L21.0638 11.9985L21.0638 11.9992C21.0671 13.3353 20.755 14.6533 20.1528 15.8459C19.4389 17.2737 18.3417 18.4747 16.984 19.3143C15.6261 20.1541 14.0613 20.5993 12.4647 20.6L12.4653 20.6L12.4638 20L12.464 20.6H12.4647C11.1975 20.6032 9.94658 20.3226 8.80342 19.7799L4.57662 20.5893C4.3813 20.6267 4.18013 20.5649 4.03951 20.4242C3.89889 20.2836 3.83708 20.0824 3.87449 19.8871L4.68389 15.6604C4.14119 14.5172 3.8606 13.2663 3.86381 11.9991L3.86381 11.9985L4.46381 12L3.86381 11.9998L3.86381 11.9991C3.86455 10.4025 4.30972 8.83769 5.14947 7.4798C5.98912 6.12207 7.1901 5.02485 8.61795 4.31097ZM8.46387 13C9.01615 13 9.46387 12.5523 9.46387 12C9.46387 11.4477 9.01615 11 8.46387 11C7.91158 11 7.46387 11.4477 7.46387 12C7.46387 12.5523 7.91158 13 8.46387 13ZM13.4639 12C13.4639 12.5523 13.0162 13 12.4639 13C11.9116 13 11.4639 12.5523 11.4639 12C11.4639 11.4477 11.9116 11 12.4639 11C13.0162 11 13.4639 11.4477 13.4639 12ZM16.4639 13C17.0162 13 17.4639 12.5523 17.4639 12C17.4639 11.4477 17.0162 11 16.4639 11C15.9116 11 15.4639 11.4477 15.4639 12C15.4639 12.5523 15.9116 13 16.4639 13Z" fill="#1A1A1A"/>
</svg>
