<svg width="25" height="24" viewBox="0 0 25 24" fill="none" xmlns="http://www.w3.org/2000/svg">
<path d="M11.4639 15.2728L8.0396 11.8485L8.88813 11L11.4639 13.5753L16.0396 9L16.8881 9.84853L11.4639 15.2728Z" fill="#1A1A1A"/>
<path fill-rule="evenodd" clip-rule="evenodd" d="M12.4639 3C17.4344 3 21.4639 7.02944 21.4639 12C21.4639 16.9706 17.4344 21 12.4639 21C7.4933 21 3.46387 16.9706 3.46387 12C3.46387 7.02944 7.4933 3 12.4639 3ZM12.4631 4.2C8.15528 4.2 4.6631 7.69218 4.6631 12C4.6631 16.3078 8.15528 19.8 12.4631 19.8C16.7709 19.8 20.2631 16.3078 20.2631 12C20.2631 7.69218 16.7709 4.2 12.4631 4.2Z" fill="#1A1A1A"/>
</svg>
