<svg width="25" height="24" viewBox="0 0 25 24" fill="none" xmlns="http://www.w3.org/2000/svg">
<path fill-rule="evenodd" clip-rule="evenodd" d="M14.5294 3.64078C14.5294 2.45846 13.6047 1.5 12.4639 1.5C11.3231 1.5 10.3983 2.45846 10.3983 3.64078L10.4035 3.79366C10.4649 4.69595 11.0659 5.44386 11.874 5.693L11.8737 7.20874H4.61141C4.06818 7.20874 3.6278 7.66515 3.6278 8.22816V21.4806C3.6278 22.0436 4.06818 22.5 4.61141 22.5H20.3163C20.8596 22.5 21.2999 22.0436 21.2999 21.4806V8.22816C21.2999 7.66515 20.8596 7.20874 20.3163 7.20874H13.054L13.0547 5.69269C13.9076 5.42928 14.5294 4.61029 14.5294 3.64078ZM4.80813 8.43204H20.1196V21.2767H4.80813V8.43204ZM10.2552 15.8739C10.4798 16.9237 11.3834 17.7087 12.4639 17.7087C13.5444 17.7087 14.448 16.9237 14.6725 15.8739L15.8715 15.8744C15.6327 17.6032 14.198 18.932 12.4639 18.932C10.7297 18.932 9.29508 17.6032 9.05619 15.8744L10.2552 15.8739ZM23.4639 17.4029V12.3058H22.2835V17.4029H23.4639ZM2.6442 12.3058V17.4029H1.46387V12.3058H2.6442ZM10.9885 12.8155C10.9885 12.2525 10.5481 11.7961 10.0049 11.7961C9.46162 11.7961 9.02125 12.2525 9.02125 12.8155C9.02125 13.3785 9.46162 13.835 10.0049 13.835C10.5481 13.835 10.9885 13.3785 10.9885 12.8155ZM14.9229 11.7961C15.4661 11.7961 15.9065 12.2525 15.9065 12.8155C15.9065 13.3785 15.4661 13.835 14.9229 13.835C14.3797 13.835 13.9393 13.3785 13.9393 12.8155C13.9393 12.2525 14.3797 11.7961 14.9229 11.7961ZM11.5786 3.64078C11.5786 3.13407 11.975 2.7233 12.4639 2.7233C12.9528 2.7233 13.3491 3.13407 13.3491 3.64078C13.3491 4.14748 12.9528 4.55825 12.4639 4.55825C11.975 4.55825 11.5786 4.14748 11.5786 3.64078Z" fill="#1A1A1A"/>
</svg>
