<svg width="25" height="24" viewBox="0 0 25 24" fill="none" xmlns="http://www.w3.org/2000/svg">
<path fill-rule="evenodd" clip-rule="evenodd" d="M15.2014 4.35627C15.053 4.13369 14.8032 4 14.5357 4H10.392C10.1245 4 9.87475 4.13368 9.72637 4.35624L7.96387 7H3.76387C3.32204 7 2.96387 7.35817 2.96387 7.8V19.2C2.96387 19.6418 3.32204 20 3.76387 20H21.1639C21.6057 20 21.9639 19.6418 21.9639 19.2V7.8C21.9639 7.35817 21.6057 7 21.1639 7H16.9637L15.2014 4.35627ZM10.6049 5.2H14.3209L16.3214 8.2H20.7639V18.8H4.16387V8.2H8.60609L10.6049 5.2ZM12.4639 9.5C14.3969 9.5 15.9639 11.067 15.9639 13C15.9639 14.933 14.3969 16.5 12.4639 16.5C10.5309 16.5 8.96387 14.933 8.96387 13C8.96387 11.067 10.5309 9.5 12.4639 9.5ZM10.1639 13C10.1639 11.7297 11.1936 10.7 12.4639 10.7C13.7341 10.7 14.7639 11.7297 14.7639 13C14.7639 14.2703 13.7341 15.3 12.4639 15.3C11.1936 15.3 10.1639 14.2703 10.1639 13Z" fill="#1A1A1A"/>
</svg>
