<svg width="25" height="24" viewBox="0 0 25 24" fill="none" xmlns="http://www.w3.org/2000/svg">
<path fill-rule="evenodd" clip-rule="evenodd" d="M8.61795 4.31097C9.81057 3.7088 11.1285 3.39669 12.4646 3.40005H12.9344C12.9454 3.40005 12.9564 3.40036 12.9674 3.40096C15.0766 3.51733 17.0688 4.40759 18.5625 5.90129C20.0562 7.395 20.9465 9.38718 21.0628 11.4964C21.0634 11.5074 21.0638 11.5184 21.0638 11.5294V11.9992C21.0671 13.3353 20.755 14.6533 20.1528 15.8459C19.4389 17.2737 18.3417 18.4747 16.984 19.3143C15.6261 20.1541 14.0613 20.5993 12.4647 20.6C11.1975 20.6032 9.94658 20.3226 8.80342 19.7799L4.57662 20.5893C4.3813 20.6267 4.18013 20.5649 4.03951 20.4242C3.89889 20.2836 3.83708 20.0824 3.87449 19.8871L4.68389 15.6604C4.14119 14.5172 3.8606 13.2663 3.86381 11.9991C3.86455 10.4025 4.30972 8.83769 5.14947 7.4798C5.98912 6.12207 7.1901 5.02485 8.61795 4.31097ZM9.46387 12C9.46387 12.5523 9.01615 13 8.46387 13C7.91158 13 7.46387 12.5523 7.46387 12C7.46387 11.4477 7.91158 11 8.46387 11C9.01615 11 9.46387 11.4477 9.46387 12ZM13.4639 12C13.4639 12.5523 13.0162 13 12.4639 13C11.9116 13 11.4639 12.5523 11.4639 12C11.4639 11.4477 11.9116 11 12.4639 11C13.0162 11 13.4639 11.4477 13.4639 12ZM17.4639 12C17.4639 12.5523 17.0162 13 16.4639 13C15.9116 13 15.4639 12.5523 15.4639 12C15.4639 11.4477 15.9116 11 16.4639 11C17.0162 11 17.4639 11.4477 17.4639 12Z" fill="#6B7682"/>
</svg>
