<svg width="25" height="24" viewBox="0 0 25 24" fill="none" xmlns="http://www.w3.org/2000/svg">
<path fill-rule="evenodd" clip-rule="evenodd" d="M5.58139 15.5991H3.46387V16.8696L5.58139 16.8696L5.58139 20.0389C5.58139 20.5692 5.9857 20.9988 6.48487 20.9988L20.5497 20.9999C21.0488 20.9999 21.4531 20.5703 21.4531 20.0399V3.96085C21.4531 3.43168 21.0488 3.00091 20.5497 3.00091L6.48487 2.99988C5.98569 2.99988 5.58139 3.43065 5.58139 3.95982V7.12903H3.46387V8.39954H5.58139L5.58139 15.5991ZM11.0869 4.2739V4.27039L20.1826 4.27142V19.7293L15.11 19.7293V19.7335H8.75747V19.729L6.8519 19.7283L6.8519 4.27039L9.81643 4.27039V4.2739H11.0869Z" fill="#1A1A1A"/>
<path fill-rule="evenodd" clip-rule="evenodd" d="M15.1306 9.66667C15.1306 8.74619 14.3844 8 13.4639 8C12.5434 8 11.7972 8.74619 11.7972 9.66667C11.7972 10.5871 12.5434 11.3333 13.4639 11.3333C14.3844 11.3333 15.1306 10.5871 15.1306 9.66667ZM17.4621 14.1584C17.414 12.9122 16.3885 11.9167 15.1305 11.9167H11.7972L11.7056 11.9184C10.4594 11.9666 9.46387 12.992 9.46387 14.25V15.5H17.4639V14.25L17.4621 14.1584Z" fill="#1A1A1A"/>
</svg>
