<svg width="25" height="24" viewBox="0 0 25 24" fill="none" xmlns="http://www.w3.org/2000/svg">
<path fill-rule="evenodd" clip-rule="evenodd" d="M21.4602 12.9396C21.3136 7.42522 16.7974 3 11.2477 3V4.47353C6.90655 4.72534 3.46387 8.3255 3.46387 12.7297C3.46387 17.2973 7.16659 21 11.7341 21C16.1385 21 19.7388 17.5571 19.9904 13.2157L21.4639 13.2152L21.4602 12.9396ZM11.2477 5.53446L11.2476 5.64343C7.55182 5.89345 4.63143 8.97054 4.63143 12.7297C4.63143 16.6524 7.81142 19.8324 11.7341 19.8324C15.4933 19.8324 18.5704 16.9121 18.8204 13.2163L11.2477 13.2162V5.53446ZM12.4152 12.0486V4.24249L12.5382 4.259C16.5014 4.82545 19.6454 7.96213 20.2069 11.9383L20.2204 12.0477L12.4152 12.0486Z" fill="#1A1A1A"/>
</svg>
