<svg width="25" height="24" viewBox="0 0 25 24" fill="none" xmlns="http://www.w3.org/2000/svg">
<path fill-rule="evenodd" clip-rule="evenodd" d="M3.46387 12C3.46387 7.02944 7.4933 3 12.4639 3C17.4344 3 21.4639 7.02944 21.4639 12C21.4639 16.9706 17.4344 21 12.4639 21C7.4933 21 3.46387 16.9706 3.46387 12ZM4.66311 12C4.66311 16.3078 8.15529 19.8 12.4631 19.8C16.7709 19.8 20.2631 16.3078 20.2631 12C20.2631 7.69218 16.7709 4.2 12.4631 4.2C8.15529 4.2 4.66311 7.69218 4.66311 12ZM9.35434 12.5444L8.57339 13.4556L12.4639 16.7902L16.3543 13.4556L15.5734 12.5444L13.0634 14.6962L13.0639 8H11.8639L11.8634 14.6962L9.35434 12.5444Z" fill="#1A1A1A"/>
</svg>
