<svg width="25" height="24" viewBox="0 0 25 24" fill="none" xmlns="http://www.w3.org/2000/svg">
<path fill-rule="evenodd" clip-rule="evenodd" d="M12.4639 3C17.4344 3 21.4639 7.02944 21.4639 12C21.4639 16.9706 17.4344 21 12.4639 21C7.4933 21 3.46387 16.9706 3.46387 12C3.46387 7.02944 7.4933 3 12.4639 3ZM12.4631 4.2C8.15528 4.2 4.6631 7.69218 4.6631 12C4.6631 16.3078 8.15528 19.8 12.4631 19.8C16.7709 19.8 20.2631 16.3078 20.2631 12C20.2631 7.69218 16.7709 4.2 12.4631 4.2ZM11.9194 8.89048L11.0083 8.10953L7.67362 12L11.0083 15.8905L11.9194 15.1095L9.76762 12.5995L16.4639 12.6V11.4L9.76762 11.3995L11.9194 8.89048Z" fill="#1A1A1A"/>
</svg>
