<svg width="25" height="24" viewBox="0 0 25 24" fill="none" xmlns="http://www.w3.org/2000/svg">
<path fill-rule="evenodd" clip-rule="evenodd" d="M5.5116 3.84157L6.30409 3.32425C7.25729 2.70335 8.35066 3.01806 8.87541 3.89488L10.9951 7.42835C11.1333 7.65875 11.1015 7.95295 10.9172 8.14849L9.83687 9.2944L9.93674 9.5055C10.536 10.7642 11.0037 11.4671 11.8912 12.3831L12.088 12.5829C13.1046 13.6002 13.8119 14.0891 15.1638 14.7337L15.3759 14.8334L16.5221 13.7543C16.6931 13.5931 16.9397 13.5486 17.153 13.6325L17.2421 13.6764L20.7774 15.7956C21.6541 16.3219 21.9681 17.414 21.3463 18.3665L20.5364 19.6046C20.3691 19.8554 20.2514 20.0237 20.1418 20.1665L19.9784 20.3688C19.2153 21.2697 18.496 21.3784 16.8533 20.9691C13.6556 20.1709 11.0001 18.7499 8.46138 16.2093C5.92045 13.6693 4.49865 11.0129 3.70249 7.81852C3.17077 5.69166 3.4265 5.20147 5.5116 3.84157ZM9.73187 7.6564L7.84605 4.51166L7.79048 4.43039C7.59452 4.17988 7.28388 4.11816 6.95955 4.32943L6.16734 4.84656C4.65647 5.83195 4.49307 5.94045 4.75549 7.07275L4.86676 7.52789C5.61248 10.5198 6.93034 12.9821 9.30999 15.3609C11.6874 17.7401 14.1489 19.0572 17.1436 19.8048C18.3901 20.1153 18.6543 20.0754 19.0632 19.5927L19.1076 19.5395C19.211 19.4131 19.3163 19.2681 19.4791 19.0266L20.3411 17.711C20.5743 17.3539 20.4767 17.0147 20.1601 16.8246L17.0139 14.9384L15.9051 15.9847C15.7533 16.1277 15.5403 16.18 15.3429 16.1288L15.2459 16.0945C13.3793 15.2485 12.5088 14.7017 11.2393 13.4313C9.96807 12.16 9.41836 11.2852 8.57687 9.42421C8.47667 9.20263 8.52013 8.94249 8.68691 8.76551L9.73187 7.6564Z" fill="#1A1A1A"/>
</svg>
