<svg width="25" height="24" viewBox="0 0 25 24" fill="none" xmlns="http://www.w3.org/2000/svg">
<path fill-rule="evenodd" clip-rule="evenodd" d="M19.6639 3.5C20.1057 3.5 20.4639 3.85817 20.4639 4.3V19.7C20.4639 20.1418 20.1057 20.5 19.6639 20.5H17.2639C16.822 20.5 16.4639 20.1418 16.4639 19.7V4.3C16.4639 3.85817 16.822 3.5 17.2639 3.5H19.6639ZM14.4639 9.3C14.4639 8.85817 14.1057 8.5 13.6639 8.5H11.2639C10.822 8.5 10.4639 8.85817 10.4639 9.3V19.7C10.4639 20.1418 10.822 20.5 11.2639 20.5H13.6639C14.1057 20.5 14.4639 20.1418 14.4639 19.7V9.3ZM8.46387 13.3C8.46387 12.8582 8.1057 12.5 7.66387 12.5H5.26387C4.82204 12.5 4.46387 12.8582 4.46387 13.3V19.7C4.46387 20.1418 4.82204 20.5 5.26387 20.5H7.66387C8.1057 20.5 8.46387 20.1418 8.46387 19.7V13.3ZM5.66387 13.7H7.26387V19.3H5.66387V13.7ZM13.2639 9.7H11.6639V19.3H13.2639V9.7ZM17.6639 4.7H19.2639V19.3H17.6639V4.7Z" fill="#1A1A1A"/>
</svg>
