<svg width="25" height="24" viewBox="0 0 25 24" fill="none" xmlns="http://www.w3.org/2000/svg">
<path fill-rule="evenodd" clip-rule="evenodd" d="M3.46387 12C3.46387 16.9706 7.4933 21 12.4639 21C17.4344 21 21.4639 16.9706 21.4639 12C21.4639 7.02944 17.4344 3 12.4639 3C7.4933 3 3.46387 7.02944 3.46387 12ZM4.6631 12C4.6631 7.69218 8.15528 4.2 12.4631 4.2C16.7709 4.2 20.2631 7.69218 20.2631 12C20.2631 16.3078 16.7709 19.8 12.4631 19.8C8.15528 19.8 4.6631 16.3078 4.6631 12ZM9.35434 11.4556L8.57339 10.5444L12.4639 7.20975L16.3543 10.5444L15.5734 11.4556L13.0634 9.30375L13.0639 16H11.8639L11.8634 9.30375L9.35434 11.4556Z" fill="#1A1A1A"/>
</svg>
