<svg width="25" height="24" viewBox="0 0 25 24" fill="none" xmlns="http://www.w3.org/2000/svg">
<path fill-rule="evenodd" clip-rule="evenodd" d="M13.96 3C14.4956 3 15.0089 3.21483 15.3847 3.59638L18.8886 7.15292C19.2572 7.5271 19.4639 8.03128 19.4639 8.55654V20.2C19.4639 20.6418 19.1057 21 18.6639 21H6.26387C5.82204 21 5.46387 20.6418 5.46387 20.2V3.8C5.46387 3.35817 5.82204 3 6.26387 3H13.96ZM13.4639 4.2H6.66387V19.8H18.2639V9.294L14.0639 9.29412C13.7656 9.29412 13.5182 9.07653 13.4717 8.79144L13.4639 8.69412V4.2ZM13.9639 17.2V16H8.96387V17.2H13.9639ZM15.9639 13V14.2H8.96387V13H15.9639ZM14.6639 8.094V4.574L18.0338 7.99509L18.1171 8.09465L14.6639 8.094Z" fill="#1A1A1A"/>
</svg>
