<svg width="25" height="24" viewBox="0 0 25 24" fill="none" xmlns="http://www.w3.org/2000/svg">
<path fill-rule="evenodd" clip-rule="evenodd" d="M19.7778 15.7796H20.9639V20.0699L20.9575 20.2076C20.8947 20.8875 20.3712 21.4285 19.7134 21.4935L19.5801 21.5H5.34759L5.21433 21.4935C4.5565 21.4285 4.03306 20.8875 3.9702 20.2076L3.96387 20.0699V15.7796H5.14991V20.0699L5.15697 20.1242C5.17539 20.1934 5.22811 20.2479 5.29504 20.2669L5.34759 20.2742H19.5801L19.6327 20.2669C19.6996 20.2479 19.7523 20.1934 19.7708 20.1242L19.7778 20.0699V15.7796ZM16.9864 10.2387L17.8251 11.1054L12.4639 16.6463L7.10267 11.1054L7.94134 10.2387L11.8718 14.2994L11.8708 2.5H13.0569L13.0579 14.2994L16.9864 10.2387Z" fill="#1A1A1A"/>
</svg>
