<svg width="25" height="24" viewBox="0 0 25 24" fill="none" xmlns="http://www.w3.org/2000/svg">
<path fill-rule="evenodd" clip-rule="evenodd" d="M14.4639 3.71277V2.5H10.4639V3.71277H14.4639ZM19.4639 4.7234V5.93617H5.46387V4.7234H19.4639ZM7.06362 7.75532V20.1801C7.06362 20.2234 7.09154 20.262 7.1338 20.2786L7.18034 20.2872H17.7469C17.7972 20.2872 17.8377 20.2595 17.8548 20.2212L17.8636 20.1801V7.75532H19.0636V20.1801C19.0636 20.8663 18.544 21.4259 17.8812 21.4932L17.7469 21.5H7.18034C6.50012 21.5 5.93804 20.9832 5.87043 20.3155L5.86362 20.1801V7.75532H7.06362ZM11.0631 8.76596V17.8617H9.86387V8.76596H11.0631ZM15.0631 17.8617V8.76596H13.8639V17.8617H15.0631Z" fill="#1A1A1A"/>
</svg>
