<svg width="25" height="24" viewBox="0 0 25 24" fill="none" xmlns="http://www.w3.org/2000/svg">
<path fill-rule="evenodd" clip-rule="evenodd" d="M8.08837 6.77597L5.46315 4.15076L4.61462 4.99928L7.04824 7.4329C4.28993 9.34891 2.46387 12 2.46387 12C2.46387 12 6.94102 18.5 12.4639 18.5C14.033 18.5 15.5178 17.9753 16.8394 17.224L19.4639 19.8485L20.3124 19L17.8795 16.5671C20.6378 14.6511 22.4639 12 22.4639 12C22.4639 12 17.9867 5.50002 12.4639 5.50002C10.8947 5.50002 9.40999 6.02472 8.08837 6.77597ZM9.243 9.62766C8.7533 10.2914 8.46387 11.1119 8.46387 12C8.46387 14.2092 10.2547 16 12.4639 16C13.352 16 14.1725 15.7106 14.8362 15.2209L13.012 13.3967C12.8422 13.4634 12.6573 13.5 12.4639 13.5C11.6354 13.5 10.9639 12.8284 10.9639 12C10.9639 11.8066 11.0005 11.6216 11.0672 11.4518L9.243 9.62766ZM11.9157 10.6033L10.0915 8.77913C10.7553 8.28945 11.5758 8.00002 12.4639 8.00002C14.673 8.00002 16.4639 9.79088 16.4639 12C16.4639 12.8881 16.1744 13.7086 15.6848 14.3724L13.8606 12.5482C13.9272 12.3784 13.9639 12.1935 13.9639 12C13.9639 11.1716 13.2923 10.5 12.4639 10.5C12.2704 10.5 12.0855 10.5366 11.9157 10.6033Z" fill="#1A1A1A"/>
</svg>
