<svg width="25" height="24" viewBox="0 0 25 24" fill="none" xmlns="http://www.w3.org/2000/svg">
<path fill-rule="evenodd" clip-rule="evenodd" d="M12.4638 9.60002C11.1383 9.60002 10.0638 10.6745 10.0638 12C10.0638 13.3255 11.1383 14.4 12.4638 14.4C13.7893 14.4 14.8638 13.3255 14.8638 12C14.8638 10.6745 13.7893 9.60002 12.4638 9.60002ZM8.86377 12C8.86377 10.0118 10.4755 8.40002 12.4638 8.40002C14.452 8.40002 16.0638 10.0118 16.0638 12C16.0638 13.9882 14.452 15.6 12.4638 15.6C10.4755 15.6 8.86377 13.9882 8.86377 12Z" fill="#1A1A1A"/>
<path fill-rule="evenodd" clip-rule="evenodd" d="M2.46387 12C2.46387 12 6.94102 18.5 12.4639 18.5C17.9867 18.5 22.4639 12 22.4639 12C22.4639 12 17.9867 5.5 12.4639 5.5C6.94102 5.5 2.46387 12 2.46387 12ZM3.96955 12C4.0321 12.0779 4.09995 12.1611 4.17291 12.249C4.65209 12.826 5.34396 13.5933 6.19455 14.3571C7.93632 15.9212 10.1537 17.3 12.4639 17.3C14.7741 17.3 16.9914 15.9212 18.7332 14.3571C19.5838 13.5933 20.2756 12.826 20.7548 12.249C20.8278 12.1611 20.8956 12.0779 20.9582 12C20.8956 11.9221 20.8278 11.8389 20.7548 11.751C20.2756 11.174 19.5838 10.4067 18.7332 9.64286C16.9914 8.07881 14.7741 6.7 12.4639 6.7C10.1537 6.7 7.93632 8.07881 6.19455 9.64286C5.34396 10.4067 4.65209 11.174 4.17291 11.751C4.09995 11.8389 4.0321 11.9221 3.96955 12Z" fill="#1A1A1A"/>
<path fill-rule="evenodd" clip-rule="evenodd" d="M5.46315 4.15074L20.3124 19L19.4639 19.8485L4.61463 4.99927L5.46315 4.15074Z" fill="#1A1A1A"/>
</svg>
