<svg width="25" height="24" viewBox="0 0 25 24" fill="none" xmlns="http://www.w3.org/2000/svg">
<path fill-rule="evenodd" clip-rule="evenodd" d="M19.2595 7.90521C19.532 7.63269 19.532 7.19085 19.2595 6.91833L16.5455 4.20439C16.273 3.93187 15.8311 3.93187 15.5586 4.20439L6.65262 13.1103L5.49157 17.1074C5.45463 17.2345 5.45463 17.3695 5.49157 17.4967C5.59907 17.8668 5.98626 18.0796 6.35636 17.9721L10.3535 16.8111L19.2595 7.90521ZM9.72283 15.7447L18.0559 7.41177L16.0521 5.408L7.71903 13.7409L6.8987 16.565L9.72283 15.7447Z" fill="#1A1A1A"/>
<path fill-rule="evenodd" clip-rule="evenodd" d="M4.86377 20.4C4.86377 20.0687 5.1324 19.8 5.46377 19.8L20.4638 19.8001C20.7951 19.8001 21.0638 20.0687 21.0638 20.4001C21.0638 20.7314 20.7951 21.0001 20.4638 21.0001L5.46377 21C5.1324 21 4.86377 20.7314 4.86377 20.4Z" fill="#1A1A1A"/>
</svg>
