<svg width="25" height="24" viewBox="0 0 25 24" fill="none" xmlns="http://www.w3.org/2000/svg">
<path d="M12.4639 10.5C11.6354 10.5 10.9639 11.1716 10.9639 12C10.9639 12.8284 11.6354 13.5 12.4639 13.5C13.2923 13.5 13.9639 12.8284 13.9639 12C13.9639 11.1716 13.2923 10.5 12.4639 10.5Z" fill="#1A1A1A"/>
<path fill-rule="evenodd" clip-rule="evenodd" d="M2.46387 12C2.46387 12 6.94102 18.5 12.4639 18.5C17.9867 18.5 22.4639 12 22.4639 12C22.4639 12 17.9867 5.5 12.4639 5.5C6.94102 5.5 2.46387 12 2.46387 12ZM8.46387 12C8.46387 9.79086 10.2547 8 12.4639 8C14.673 8 16.4639 9.79086 16.4639 12C16.4639 14.2091 14.673 16 12.4639 16C10.2547 16 8.46387 14.2091 8.46387 12Z" fill="#1A1A1A"/>
</svg>
