<svg width="25" height="24" viewBox="0 0 25 24" fill="none" xmlns="http://www.w3.org/2000/svg">
<path fill-rule="evenodd" clip-rule="evenodd" d="M12.4639 18.5C6.94102 18.5 2.46387 12 2.46387 12C2.46387 12 6.94102 5.5 12.4639 5.5C17.9867 5.5 22.4639 12 22.4639 12C22.4639 12 17.9867 18.5 12.4639 18.5ZM4.17291 12.249C4.09995 12.1611 4.0321 12.0779 3.96955 12C4.0321 11.9221 4.09995 11.8389 4.17291 11.751C4.65209 11.174 5.34396 10.4067 6.19455 9.64286C7.93632 8.07881 10.1537 6.7 12.4639 6.7C14.7741 6.7 16.9914 8.07881 18.7332 9.64286C19.5838 10.4067 20.2756 11.174 20.7548 11.751C20.8278 11.8389 20.8956 11.9221 20.9582 12C20.8956 12.0779 20.8278 12.1611 20.7548 12.249C20.2756 12.826 19.5838 13.5933 18.7332 14.3571C16.9914 15.9212 14.7741 17.3 12.4639 17.3C10.1537 17.3 7.93632 15.9212 6.19455 14.3571C5.34396 13.5933 4.65209 12.826 4.17291 12.249ZM10.0638 12C10.0638 10.6745 11.1383 9.60002 12.4638 9.60002C13.7893 9.60002 14.8638 10.6745 14.8638 12C14.8638 13.3255 13.7893 14.4 12.4638 14.4C11.1383 14.4 10.0638 13.3255 10.0638 12ZM12.4638 8.40002C10.4755 8.40002 8.86377 10.0118 8.86377 12C8.86377 13.9882 10.4755 15.6 12.4638 15.6C14.452 15.6 16.0638 13.9882 16.0638 12C16.0638 10.0118 14.452 8.40002 12.4638 8.40002Z" fill="#1A1A1A"/>
</svg>
