<svg width="25" height="24" viewBox="0 0 25 24" fill="none" xmlns="http://www.w3.org/2000/svg">
<path fill-rule="evenodd" clip-rule="evenodd" d="M20.4639 3.79515C20.4639 3.356 20.1074 3 19.6677 3H5.26005C5.0672 3 4.8809 3.06991 4.73577 3.19674C4.40485 3.48592 4.37132 3.98827 4.66087 4.31877L10.472 10.9515V21.4036C10.472 21.5551 10.5296 21.7008 10.6333 21.8113C10.8588 22.0517 11.2366 22.064 11.4773 21.8389L14.1362 19.3512C14.3371 19.1633 14.4511 18.9007 14.4511 18.6258V10.9742L20.2676 4.318C20.3941 4.17315 20.4639 3.98741 20.4639 3.79515ZM6.13781 4.19273H18.7909L13.2568 10.5269L13.2566 18.5393L11.6662 20.0262V10.5034L6.13781 4.19273Z" fill="#1A1A1A"/>
</svg>
