<svg width="25" height="24" viewBox="0 0 25 24" fill="none" xmlns="http://www.w3.org/2000/svg">
<path fill-rule="evenodd" clip-rule="evenodd" d="M12.4639 3C17.4349 3 21.4639 7.029 21.4639 12C21.4639 16.971 17.4349 21 12.4639 21C7.49287 21 3.46387 16.971 3.46387 12C3.46387 7.029 7.49287 3 12.4639 3ZM8.47866 12.6011L4.68666 12.6009C4.96305 16.2298 7.72194 19.164 11.269 19.7091C9.63792 17.7675 8.61188 15.3017 8.47866 12.6011ZM16.4491 12.601L20.2411 12.6009C19.9648 16.2288 17.2073 19.1623 13.6607 19.7087C15.2902 17.7668 16.3159 15.3013 16.4491 12.601ZM15.2474 12.6006L9.68035 12.6008C9.81471 15.0452 10.7658 17.3272 12.3485 19.1257L12.4639 19.253L12.5803 19.1256C14.0833 17.4165 15.0164 15.2715 15.2212 12.9659L15.2474 12.6006ZM11.2461 4.29447L11.2674 4.29084C9.63743 6.23319 8.61148 8.69944 8.47858 11.4005L4.68658 11.4001C4.96194 7.77856 7.70973 4.84874 11.2461 4.29447ZM12.4629 4.745L12.4107 4.80319C10.7892 6.61496 9.81606 8.925 9.68028 11.4003L15.2475 11.4004C15.1133 8.95606 14.1626 6.67373 12.5803 4.87439L12.4629 4.745ZM13.8658 4.54243L13.6617 4.29137C17.2077 4.83774 19.9653 7.77176 20.2411 11.4001L16.4491 11.4C16.3218 8.81445 15.3762 6.44406 13.8658 4.54243Z" fill="#1A1A1A"/>
</svg>
