<svg width="25" height="24" viewBox="0 0 25 24" fill="none" xmlns="http://www.w3.org/2000/svg">
<path d="M12.9539 13.51C12.8769 12.7861 13.298 12.3074 13.7261 11.8207C14.1318 11.3594 14.5439 10.891 14.5439 10.2C14.5439 8.92 13.6639 8.3 12.4639 8.3C11.5939 8.3 10.8839 8.71 10.3639 9.3L11.1739 10.04C11.4939 9.71 11.8439 9.48 12.2839 9.48C12.8039 9.48 13.1339 9.8 13.1339 10.3C13.1339 10.6994 12.8395 11.0435 12.5131 11.4251C12.055 11.9605 11.5337 12.5699 11.6739 13.51H12.9539Z" fill="#1A1A1A"/>
<path d="M12.3132 16.17C12.8432 16.17 13.2332 15.75 13.2332 15.21C13.2332 14.67 12.8432 14.25 12.3132 14.25C11.7932 14.25 11.4032 14.67 11.4032 15.21C11.4032 15.75 11.7932 16.17 12.3132 16.17Z" fill="#1A1A1A"/>
<path fill-rule="evenodd" clip-rule="evenodd" d="M12.4639 3C17.4344 3 21.4639 7.02944 21.4639 12C21.4639 16.9706 17.4344 21 12.4639 21C7.4933 21 3.46387 16.9706 3.46387 12C3.46387 7.02944 7.4933 3 12.4639 3ZM12.4631 4.2C8.15529 4.2 4.66311 7.69218 4.66311 12C4.66311 16.3078 8.15529 19.8 12.4631 19.8C16.7709 19.8 20.2631 16.3078 20.2631 12C20.2631 7.69218 16.7709 4.2 12.4631 4.2Z" fill="#1A1A1A"/>
</svg>
