<svg width="25" height="24" viewBox="0 0 25 24" fill="none" xmlns="http://www.w3.org/2000/svg">
<path fill-rule="evenodd" clip-rule="evenodd" d="M20.7081 10.2757L13.0081 3.21118C12.7012 2.92961 12.2266 2.92961 11.9197 3.21118L4.21965 10.2757C4.05655 10.4254 3.96387 10.6354 3.96387 10.8554V20.2092C3.96387 20.6459 4.32204 21 4.76387 21H10.1639C10.6057 21 10.9639 20.6459 10.9639 20.2092V17.0458H13.9639V20.2092C13.9639 20.6459 14.322 21 14.7639 21H20.1639C20.6057 21 20.9639 20.6459 20.9639 20.2092V10.8554C20.9639 10.6354 20.8712 10.4254 20.7081 10.2757ZM5.16387 11.0275L12.4639 4.33013L19.7639 11.0285V19.8137H15.1639V17.0458L15.1577 16.9245C15.0962 16.3263 14.5852 15.8596 13.9639 15.8596H10.9639L10.8412 15.8657C10.2361 15.9264 9.76387 16.4316 9.76387 17.0458V19.8137H5.16387V11.0275Z" fill="#1A1A1A"/>
</svg>
