<svg width="25" height="24" viewBox="0 0 25 24" fill="none" xmlns="http://www.w3.org/2000/svg">
<path fill-rule="evenodd" clip-rule="evenodd" d="M20.6639 3C21.1057 3 21.4639 3.35817 21.4639 3.8V20.2C21.4639 20.6418 21.1057 21 20.6639 21H4.26387C3.82204 21 3.46387 20.6418 3.46387 20.2V3.8C3.46387 3.35817 3.82204 3 4.26387 3H20.6639ZM14.8729 10.878L5.84787 19.8H20.2639V16.207L14.8729 10.878ZM4.66387 4.2H20.2639V14.519L14.8735 9.19088L4.66387 19.282V4.2ZM9.26387 7.3C10.3684 7.3 11.2639 8.19543 11.2639 9.3C11.2639 10.4046 10.3684 11.3 9.26387 11.3C8.1593 11.3 7.26387 10.4046 7.26387 9.3C7.26387 8.19543 8.1593 7.3 9.26387 7.3ZM8.26387 9.3C8.26387 8.74772 8.71158 8.3 9.26387 8.3C9.81615 8.3 10.2639 8.74772 10.2639 9.3C10.2639 9.85228 9.81615 10.3 9.26387 10.3C8.71158 10.3 8.26387 9.85228 8.26387 9.3Z" fill="#1A1A1A"/>
</svg>
