<svg width="25" height="24" viewBox="0 0 25 24" fill="none" xmlns="http://www.w3.org/2000/svg">
<path d="M12.4739 9.8C12.9739 9.8 13.3439 9.46 13.3439 9C13.3439 8.52 12.9739 8.2 12.4739 8.2C11.9639 8.2 11.5939 8.52 11.5939 9C11.5939 9.46 11.9639 9.8 12.4739 9.8Z" fill="#1A1A1A"/>
<path d="M13.1929 16.3V10.7H11.7338V16.3H13.1929Z" fill="#1A1A1A"/>
<path fill-rule="evenodd" clip-rule="evenodd" d="M12.4639 3C17.4344 3 21.4639 7.02944 21.4639 12C21.4639 16.9706 17.4344 21 12.4639 21C7.4933 21 3.46387 16.9706 3.46387 12C3.46387 7.02944 7.4933 3 12.4639 3ZM12.4631 4.2C8.15529 4.2 4.66311 7.69218 4.66311 12C4.66311 16.3078 8.15529 19.8 12.4631 19.8C16.7709 19.8 20.2631 16.3078 20.2631 12C20.2631 7.69218 16.7709 4.2 12.4631 4.2Z" fill="#1A1A1A"/>
</svg>
