<svg width="25" height="24" viewBox="0 0 25 24" fill="none" xmlns="http://www.w3.org/2000/svg">
<path fill-rule="evenodd" clip-rule="evenodd" d="M21.4639 3.8C21.4639 3.35817 21.1057 3 20.6639 3H4.26387C3.82204 3 3.46387 3.35817 3.46387 3.8V20.2C3.46387 20.6418 3.82204 21 4.26387 21H20.6639C21.1057 21 21.4639 20.6418 21.4639 20.2V3.8ZM4.6631 4.2H20.2631V14.5192L14.8729 9.19088L4.6631 19.2836V4.2ZM14.8723 10.878L20.2631 16.2066V19.8H5.84759L14.8723 10.878ZM9.26387 7.3C10.3684 7.3 11.2639 8.19543 11.2639 9.3C11.2639 10.4046 10.3684 11.3 9.26387 11.3C8.1593 11.3 7.26387 10.4046 7.26387 9.3C7.26387 8.19543 8.1593 7.3 9.26387 7.3ZM9.26323 8.3C8.71095 8.3 8.26323 8.74772 8.26323 9.3C8.26323 9.85228 8.71095 10.3 9.26323 10.3C9.81552 10.3 10.2632 9.85228 10.2632 9.3C10.2632 8.74772 9.81552 8.3 9.26323 8.3Z" fill="#1A1A1A"/>
</svg>
