<svg width="25" height="24" viewBox="0 0 25 24" fill="none" xmlns="http://www.w3.org/2000/svg">
<path fill-rule="evenodd" clip-rule="evenodd" d="M20.4639 9.51488C20.4639 4.70595 16.8831 1.5 12.4639 1.5C8.04467 1.5 4.46387 4.70595 4.46387 9.51488C4.46387 12.6013 6.93547 16.8434 11.8787 22.241L11.9184 22.2814C12.2416 22.588 12.7478 22.5699 13.049 22.241L13.3899 21.8663C18.1059 16.6467 20.4639 12.5296 20.4639 9.51488ZM5.66387 9.51488C5.66387 5.52604 8.55857 2.72132 12.4639 2.72132C16.3692 2.72132 19.2639 5.52604 19.2639 9.51488L19.2601 9.70448C19.1562 12.3251 16.9218 16.1539 12.4987 21.0482L12.4639 21.0858L12.1092 20.692C7.79291 15.8497 5.66387 12.0765 5.66387 9.51488ZM12.4639 5.97816C14.4524 5.97816 16.0639 7.61821 16.0639 9.6421C16.0639 11.666 14.4524 13.306 12.4639 13.306C10.4753 13.306 8.86387 11.666 8.86387 9.6421C8.86387 7.61821 10.4753 5.97816 12.4639 5.97816ZM10.0639 9.6421C10.0639 8.29272 11.138 7.19947 12.4639 7.19947C13.7897 7.19947 14.8639 8.29272 14.8639 9.6421C14.8639 10.9915 13.7897 12.0847 12.4639 12.0847C11.138 12.0847 10.0639 10.9915 10.0639 9.6421Z" fill="#1A1A1A"/>
</svg>
