<svg width="25" height="24" viewBox="0 0 25 24" fill="none" xmlns="http://www.w3.org/2000/svg">
<path fill-rule="evenodd" clip-rule="evenodd" d="M16.5588 5.97487C16.4522 3.76129 14.6596 2 12.4639 2L12.2592 2.00512C10.0899 2.11392 8.36387 3.94311 8.36387 6.18367L8.36187 8.73469H5.84771C5.35964 8.73469 4.96387 9.18595 4.96387 9.74245V20.9922C4.96387 21.5487 5.35964 22 5.84771 22H19.08C19.5681 22 19.9639 21.5487 19.9639 20.9922V9.74245C19.9639 9.18595 19.5681 8.73469 19.08 8.73469H16.5619L16.5639 6.18367L16.5588 5.97487ZM6.16387 20.7755V9.95918H18.7639V20.7755H6.16387ZM12.4639 3.22449C10.9194 3.22449 9.657 4.45641 9.56879 6.0098L9.56387 6.18367L9.56187 8.73469H15.3619L15.3639 6.18367C15.3639 4.60773 14.1566 3.31952 12.6343 3.22951L12.4639 3.22449ZM13.7139 15.25C13.7139 15.9404 13.1542 16.5 12.4639 16.5C11.7735 16.5 11.2139 15.9404 11.2139 15.25C11.2139 14.5596 11.7735 14 12.4639 14C13.1542 14 13.7139 14.5596 13.7139 15.25Z" fill="#1A1A1A"/>
</svg>
