<svg width="25" height="24" viewBox="0 0 25 24" fill="none" xmlns="http://www.w3.org/2000/svg">
<path fill-rule="evenodd" clip-rule="evenodd" d="M21.4639 9.5C21.4639 5.5 18.9304 3.5 16.4639 3.5C14.8195 3.5 13.4861 4.16667 12.4638 5.5C11.481 4.16667 10.1477 3.5 8.46387 3.5C5.93808 3.5 3.46387 5.5 3.46387 9.5C3.46387 12.8333 6.46383 16.5 12.4638 20.5C18.4638 16.5 21.4639 12.8333 21.4639 9.5ZM13.5669 6.04177C14.3359 5.13169 15.2736 4.7 16.4631 4.7C18.5753 4.7 20.2631 6.49232 20.2631 9.5L20.259 9.68882C20.1441 12.3439 17.6144 15.4873 12.5397 18.9976L12.4631 19.049L12.0282 18.7475C7.07471 15.2548 4.6631 12.1318 4.6631 9.5C4.6631 6.46933 6.31615 4.7 8.46311 4.7C9.76757 4.7 10.7416 5.18702 11.497 6.21197L12.4441 7.49684L13.4153 6.23018L13.5669 6.04177Z" fill="#1A1A1A"/>
</svg>
