<svg width="25" height="24" viewBox="0 0 25 24" fill="none" xmlns="http://www.w3.org/2000/svg">
<path d="M5.32764 3.5L5.19627 3.50633C4.54781 3.56919 4.03183 4.09263 3.96987 4.75046L3.96362 4.88372V19.1163L3.96987 19.2495C4.03183 19.9074 4.54781 20.4308 5.19627 20.4937L5.32764 20.5H9.41967V19.314H5.32764L5.27583 19.3069C5.20986 19.2885 5.15789 19.2358 5.13974 19.1688L5.13278 19.1163V4.88372L5.13974 4.83117C5.15789 4.76424 5.20986 4.71152 5.27583 4.69311L5.32764 4.68605H9.41967V3.5H5.32764Z" fill="#1A1A1A"/>
<path d="M15.6788 6.63881L14.8521 7.47747L18.7266 11.407H8.44538V12.593H18.7247L14.8521 16.5225L15.6788 17.3612L20.9636 12L15.6788 6.63881Z" fill="#1A1A1A"/>
</svg>
