<svg width="25" height="24" viewBox="0 0 25 24" fill="none" xmlns="http://www.w3.org/2000/svg">
<path fill-rule="evenodd" clip-rule="evenodd" d="M16.2434 4.68605V3.5H20.5338L20.6715 3.50633C21.3514 3.56919 21.8924 4.09263 21.9573 4.75046L21.9639 4.88372V19.1163L21.9573 19.2495C21.8924 19.9074 21.3514 20.4308 20.6715 20.4937L20.5338 20.5H16.2434V19.314H20.5338L20.5881 19.3069C20.6572 19.2885 20.7117 19.2358 20.7308 19.1688L20.7381 19.1163V4.88372L20.7308 4.83117C20.7117 4.76424 20.6572 4.71152 20.5881 4.69311L20.5338 4.68605H16.2434ZM10.7025 7.47747L11.5693 6.63881L17.1102 12L11.5693 17.3612L10.7025 16.5225L14.7633 12.593H2.96387V11.407H14.7653L10.7025 7.47747Z" fill="#1A1A1A"/>
</svg>
