<svg width="25" height="24" viewBox="0 0 25 24" fill="none" xmlns="http://www.w3.org/2000/svg">
<path fill-rule="evenodd" clip-rule="evenodd" d="M13.2299 4.69767C14.1017 3.85561 15.2694 3.38967 16.4815 3.4002C17.6935 3.41073 18.853 3.8969 19.7101 4.75398C20.5671 5.61107 21.0533 6.7705 21.0638 7.98256C21.0744 9.19462 20.6084 10.3623 19.7664 11.2342L19.7591 11.2417L17.3455 13.6552C17.3455 13.6552 17.3455 13.6551 17.3455 13.6552C16.8769 14.1239 16.3129 14.4865 15.6918 14.7182C15.0708 14.9499 14.4071 15.0453 13.7459 14.9979C13.0848 14.9505 12.4415 14.7616 11.8598 14.4437C11.2781 14.1259 10.7715 13.6867 10.3745 13.1559C10.176 12.8906 10.2302 12.5145 10.4955 12.3161C10.7609 12.1176 11.1369 12.1718 11.3354 12.4371C11.6294 12.8301 12.0044 13.1553 12.4351 13.3907C12.8658 13.626 13.3421 13.7659 13.8317 13.801C14.3212 13.836 14.8126 13.7654 15.2724 13.5939C15.7323 13.4223 16.1498 13.1539 16.4968 12.8068L18.9067 10.3969C19.528 9.75178 19.8717 8.88874 19.8639 7.99299C19.8561 7.09557 19.4961 6.23711 18.8615 5.60251C18.2269 4.96791 17.3685 4.60795 16.471 4.60015C15.575 4.59237 14.7117 4.93628 14.0665 5.55793L12.6859 6.93051C12.4509 7.16414 12.071 7.16303 11.8374 6.92804C11.6037 6.69304 11.6049 6.31314 11.8399 6.07951L13.2299 4.69767ZM9.2362 9.26578C9.85727 9.0341 10.5209 8.9387 11.1821 8.98606C11.8433 9.03341 12.4865 9.2224 13.0682 9.54022C13.6499 9.85804 14.1565 10.2972 14.5536 10.8281C14.752 11.0934 14.6978 11.4694 14.4325 11.6679C14.1671 11.8664 13.7911 11.8122 13.5926 11.5468C13.2987 11.1538 12.9236 10.8286 12.4929 10.5933C12.0622 10.358 11.5859 10.2181 11.0964 10.183C10.6068 10.1479 10.1155 10.2186 9.6556 10.3901C9.19576 10.5616 8.77818 10.8301 8.4312 11.1772L6.02134 13.587C5.40005 14.2322 5.05636 15.0952 5.06414 15.991C5.07194 16.8884 5.4319 17.7469 6.0665 18.3814C6.7011 19.016 7.55955 19.376 8.45698 19.3838C9.35273 19.3916 10.2158 19.0479 10.8609 18.4266L12.2328 17.0547C12.4672 16.8204 12.8471 16.8204 13.0814 17.0547C13.3157 17.289 13.3157 17.6689 13.0814 17.9032L11.6982 19.2864C10.8264 20.1284 9.65861 20.5943 8.44655 20.5838C7.23449 20.5732 6.07506 20.0871 5.21797 19.23C4.36089 18.3729 3.87472 17.2135 3.86419 16.0014C3.85366 14.7893 4.3196 13.6216 5.16166 12.7498L5.16891 12.7423L7.58252 10.3288C7.58254 10.3288 7.58249 10.3288 7.58252 10.3288C8.05114 9.86003 8.61517 9.49744 9.2362 9.26578Z" fill="#1A1A1A"/>
</svg>
