<svg width="25" height="24" viewBox="0 0 25 24" fill="none" xmlns="http://www.w3.org/2000/svg">
<path fill-rule="evenodd" clip-rule="evenodd" d="M4.46387 4.63158C4.46387 4.28277 4.74663 4 5.09545 4H10.8264C11.1753 4 11.458 4.28277 11.458 4.63158V10.3626C11.458 10.7114 11.1753 10.9942 10.8264 10.9942H5.09545C4.74663 10.9942 4.46387 10.7114 4.46387 10.3626V4.63158ZM5.72703 5.26316V9.73099H10.1949V5.26316H5.72703ZM13.4697 4.63158C13.4697 4.28277 13.7525 4 14.1013 4H19.8323C20.1811 4 20.4639 4.28277 20.4639 4.63158V10.3626C20.4639 10.7114 20.1811 10.9942 19.8323 10.9942H14.1013C13.7525 10.9942 13.4697 10.7114 13.4697 10.3626V4.63158ZM14.7329 5.26316V9.73099H19.2007V5.26316H14.7329ZM4.46387 13.6374C4.46387 13.2886 4.74663 13.0058 5.09545 13.0058H10.8264C11.1753 13.0058 11.458 13.2886 11.458 13.6374V19.3684C11.458 19.7172 11.1753 20 10.8264 20H5.09545C4.74663 20 4.46387 19.7172 4.46387 19.3684V13.6374ZM5.72703 14.269V18.7368H10.1949V14.269H5.72703ZM13.4697 13.6374C13.4697 13.2886 13.7525 13.0058 14.1013 13.0058H19.8323C20.1811 13.0058 20.4639 13.2886 20.4639 13.6374V19.3684C20.4639 19.7172 20.1811 20 19.8323 20H14.1013C13.7525 20 13.4697 19.7172 13.4697 19.3684V13.6374ZM14.7329 14.269V18.7368H19.2007V14.269H14.7329Z" fill="#1A1A1A"/>
</svg>
