<svg width="25" height="24" viewBox="0 0 25 24" fill="none" xmlns="http://www.w3.org/2000/svg">
<path fill-rule="evenodd" clip-rule="evenodd" d="M12.4639 2.5C14.4025 2.5 15.9741 4.067 15.9741 6V12C15.9741 13.933 14.4025 15.5 12.4639 15.5C10.5252 15.5 8.95366 13.933 8.95366 12V6C8.95366 4.067 10.5252 2.5 12.4639 2.5ZM18.9639 12.4995C18.7232 15.6572 16.2197 18.1844 13.0665 18.4726L13.0655 20.299L16.977 20.3V21.5H7.95074V20.3L11.862 20.299L11.8622 18.4727C8.70854 18.1849 6.20455 15.6575 5.96387 12.4995L7.17177 12.5002C7.42455 15.1927 9.6974 17.3 12.4639 17.3C15.2304 17.3 17.5033 15.1926 17.756 12.5L18.9639 12.4995ZM10.1625 5.84253C10.2436 4.64572 11.243 3.7 12.4639 3.7C13.7378 3.7 14.7706 4.72974 14.7706 6V12L14.7653 12.1575C14.6841 13.3543 13.6847 14.3 12.4639 14.3C11.1899 14.3 10.1572 13.2703 10.1572 12V6L10.1625 5.84253Z" fill="#1A1A1A"/>
</svg>
