<svg width="25" height="24" viewBox="0 0 25 24" fill="none" xmlns="http://www.w3.org/2000/svg">
<path d="M12.4546 2L14.9007 4.44365L14.2018 5.14184L13.0462 3.98662V11.4068H20.4738L19.3189 10.2539L20.0178 9.5557L22.4639 11.9993L20.0178 14.443L19.3189 13.7448L20.4718 12.5917H13.0462V20.0119L14.2018 18.8582L14.9007 19.5563L12.4546 22L10.0086 19.5563L10.7074 18.8582L11.8602 20.0099V12.5917H4.45443L5.60881 13.7448L4.90993 14.443L2.46387 11.9993L4.90993 9.5557L5.60881 10.2539L4.45245 11.4068H11.8602V3.98859L10.7074 5.14184L10.0086 4.44365L12.4546 2Z" fill="#1A1A1A"/>
</svg>
