<svg width="25" height="24" viewBox="0 0 25 24" fill="none" xmlns="http://www.w3.org/2000/svg">
<path d="M8.61387 8.99853L9.4624 8.15L12.4624 11.15L15.4624 8.15L16.3109 8.99853L13.3109 11.9985L16.3109 14.9985L15.4624 15.8471L12.4624 12.8471L9.4624 15.8471L8.61387 14.9985L11.6139 11.9985L8.61387 8.99853Z" fill="#1A1A1A"/>
<path fill-rule="evenodd" clip-rule="evenodd" d="M12.4639 3C17.4344 3 21.4639 7.02944 21.4639 12C21.4639 16.9706 17.4344 21 12.4639 21C7.4933 21 3.46387 16.9706 3.46387 12C3.46387 7.02944 7.4933 3 12.4639 3ZM12.4631 4.2C8.15528 4.2 4.6631 7.69218 4.6631 12C4.6631 16.3078 8.15528 19.8 12.4631 19.8C16.7709 19.8 20.2631 16.3078 20.2631 12C20.2631 7.69218 16.7709 4.2 12.4631 4.2Z" fill="#1A1A1A"/>
</svg>
