<svg width="25" height="24" viewBox="0 0 25 24" fill="none" xmlns="http://www.w3.org/2000/svg">
<path fill-rule="evenodd" clip-rule="evenodd" d="M12.4639 18C13.0162 18 13.4639 18.4477 13.4639 19C13.4639 19.5523 13.0162 20 12.4639 20C11.9116 20 11.4639 19.5523 11.4639 19C11.4639 18.4477 11.9116 18 12.4639 18ZM12.4639 11C13.0162 11 13.4639 11.4477 13.4639 12C13.4639 12.5523 13.0162 13 12.4639 13C11.9116 13 11.4639 12.5523 11.4639 12C11.4639 11.4477 11.9116 11 12.4639 11ZM12.4639 4C13.0162 4 13.4639 4.44772 13.4639 5C13.4639 5.55228 13.0162 6 12.4639 6C11.9116 6 11.4639 5.55228 11.4639 5C11.4639 4.44772 11.9116 4 12.4639 4Z" fill="#1A1A1A"/>
</svg>
