<svg width="25" height="24" viewBox="0 0 25 24" fill="none" xmlns="http://www.w3.org/2000/svg">
<path fill-rule="evenodd" clip-rule="evenodd" d="M14.0139 5.75C14.0139 6.60604 13.3199 7.3 12.4639 7.3C11.6078 7.3 10.9139 6.60604 10.9139 5.75C10.9139 4.89396 11.6078 4.2 12.4639 4.2C13.3199 4.2 14.0139 4.89396 14.0139 5.75ZM13.0639 8.43435C14.2941 8.16058 15.2139 7.0627 15.2139 5.75C15.2139 4.23122 13.9827 3 12.4639 3C10.9451 3 9.71387 4.23122 9.71387 5.75C9.71387 7.0627 10.6336 8.16058 11.8639 8.43435V11.4001H7.16405C6.2804 11.4001 5.56405 12.1164 5.56405 13.0001V15.6771C4.35889 15.9691 3.46387 17.055 3.46387 18.3499C3.46387 19.8687 4.69508 21.0999 6.21387 21.0999C7.73265 21.0999 8.96387 19.8687 8.96387 18.3499C8.96387 17.0195 8.01919 15.9098 6.76405 15.655V13.0001C6.76405 12.7792 6.94314 12.6001 7.16405 12.6001H17.7642C17.9851 12.6001 18.1642 12.7792 18.1642 13.0001V15.6548C16.9088 15.9095 15.9639 17.0193 15.9639 18.3499C15.9639 19.8686 17.1951 21.0999 18.7139 21.0999C20.2327 21.0999 21.4639 19.8686 21.4639 18.3499C21.4639 17.0551 20.5691 15.9693 19.3642 15.6772V13.0001C19.3642 12.1164 18.6478 11.4001 17.7642 11.4001H13.0639V8.43435ZM18.7139 19.8999C19.5699 19.8999 20.2639 19.2059 20.2639 18.3499C20.2639 17.4938 19.5699 16.7999 18.7139 16.7999C17.8578 16.7999 17.1639 17.4938 17.1639 18.3499C17.1639 19.2059 17.8578 19.8999 18.7139 19.8999ZM6.21387 19.8999C7.06991 19.8999 7.76387 19.206 7.76387 18.3499C7.76387 17.4939 7.06991 16.7999 6.21387 16.7999C5.35783 16.7999 4.66387 17.4939 4.66387 18.3499C4.66387 19.206 5.35783 19.8999 6.21387 19.8999Z" fill="#1A1A1A"/>
</svg>
