<svg width="25" height="24" viewBox="0 0 25 24" fill="none" xmlns="http://www.w3.org/2000/svg">
<path fill-rule="evenodd" clip-rule="evenodd" d="M17.656 3.49715C17.6095 3.2152 17.3621 3 17.0639 3H8.06387L7.96654 3.00777C7.68146 3.05376 7.46387 3.29845 7.46387 3.59341L7.46287 6.95604H4.23893C3.81116 6.95604 3.46387 7.35253 3.46387 7.84088V16.9503C3.46387 17.4387 3.81116 17.8352 4.23893 17.8352H7.46287L7.46387 20.4066L7.47172 20.5028C7.51822 20.7848 7.76563 21 8.06387 21H17.0639L17.1612 20.9922C17.4463 20.9462 17.6639 20.7015 17.6639 20.4066L17.6629 17.8352H20.5882C21.0721 17.8352 21.4639 17.3879 21.4639 16.8355V7.92308C21.4639 7.38879 21.0848 6.95604 20.6168 6.95604H17.6629L17.6639 3.59341L17.656 3.49715ZM8.66387 13.0869H16.4639V19.8122H8.66387V13.0869ZM20.2639 8.14286H4.66387V16.6484H7.46287L7.46387 12.4945C7.46387 12.1995 7.68146 11.9549 7.96654 11.9089L8.06387 11.9011H17.0639C17.3621 11.9011 17.6095 12.1163 17.656 12.3983L17.6639 12.4945L17.6629 16.6484H20.2639V8.14286ZM8.66387 4.18681H16.4639V6.95604H8.66387V4.18681Z" fill="#1A1A1A"/>
</svg>
