<svg width="25" height="24" viewBox="0 0 25 24" fill="none" xmlns="http://www.w3.org/2000/svg">
<path d="M20.9871 3V8.8762H15.1109V7.60562L18.8224 7.60407C17.4272 5.58985 15.0996 4.27059 12.4639 4.27059C8.19503 4.27059 4.73446 7.73116 4.73446 12C4.73446 16.2688 8.19503 19.7294 12.4639 19.7294C16.7323 19.7294 20.1927 16.2694 20.1933 12.0011L21.4639 12C21.4639 16.9706 17.4344 21 12.4639 21C7.4933 21 3.46387 16.9706 3.46387 12C3.46387 7.02944 7.4933 3 12.4639 3C15.4395 3 18.0778 4.44408 19.7163 6.66964L19.7165 3H20.9871Z" fill="#1A1A1A"/>
</svg>
