<svg width="25" height="24" viewBox="0 0 25 24" fill="none" xmlns="http://www.w3.org/2000/svg">
<path fill-rule="evenodd" clip-rule="evenodd" d="M10.4639 5.2H14.4639C14.9057 5.2 15.2639 5.55817 15.2639 6V7H9.66387V6C9.66387 5.55817 10.022 5.2 10.4639 5.2ZM8.46387 7V6C8.46387 4.89543 9.3593 4 10.4639 4H14.4639C15.5684 4 16.4639 4.89543 16.4639 6V7H19.6639C20.658 7 21.4639 7.83147 21.4639 8.85714V17.1429C21.4639 18.1685 20.658 19 19.6639 19H16.4639H8.46387H5.26387C4.26976 19 3.46387 18.1685 3.46387 17.1429V8.85714C3.46387 7.83147 4.26975 7 5.26387 7H8.46387ZM8.46387 17.8857H5.26387C4.86622 17.8857 4.54387 17.5531 4.54387 17.1429V8.85714C4.54387 8.44687 4.86622 8.11429 5.26387 8.11429H8.46387V17.8857ZM16.4639 17.8857H19.6639C20.0615 17.8857 20.3839 17.5531 20.3839 17.1429V8.85714C20.3839 8.44687 20.0615 8.11429 19.6639 8.11429H16.4639V17.8857ZM15.2639 8.11429V17.8H9.66387V8.11429H15.2639Z" fill="#1A1A1A"/>
</svg>
