<svg width="25" height="24" viewBox="0 0 25 24" fill="none" xmlns="http://www.w3.org/2000/svg">
<path fill-rule="evenodd" clip-rule="evenodd" d="M3.471 8.93228L9.31682 8.08786L11.9334 2.82742C12.1504 2.39086 12.7773 2.39086 12.9943 2.82742L15.6099 8.08786L21.4567 8.93228C21.9096 8.99762 22.1085 9.51772 21.8476 9.86306L21.7846 9.93416L17.5522 14.0291L18.5522 19.812C18.6299 20.2619 18.189 20.6116 17.776 20.4669L17.6939 20.4312L12.4639 17.7012L7.23382 20.4312C6.82696 20.6436 6.35574 20.3353 6.36672 19.9005L6.3755 19.812L7.37456 14.0291L3.14315 9.93416C2.81547 9.617 2.96239 9.08011 3.37792 8.95301L3.471 8.93228Z" fill="#1A1A1A"/>
</svg>
