<svg width="25" height="24" viewBox="0 0 25 24" fill="none" xmlns="http://www.w3.org/2000/svg">
<path fill-rule="evenodd" clip-rule="evenodd" d="M18.0629 10.2995C18.0629 6.26811 14.7948 3 10.7634 3C6.73197 3 3.46387 6.26811 3.46387 10.2995C3.46387 14.3309 6.73197 17.599 10.7634 17.599C12.5687 17.599 14.2209 16.9437 15.4951 15.8579L20.638 21L21.4639 20.1742L16.3218 15.0313C17.4075 13.757 18.0629 12.1048 18.0629 10.2995ZM4.63105 10.2995C4.63105 6.91313 7.37626 4.16792 10.7626 4.16792C14.149 4.16792 16.8942 6.91313 16.8942 10.2995C16.8942 13.6859 14.149 16.4311 10.7626 16.4311C7.37626 16.4311 4.63105 13.6859 4.63105 10.2995Z" fill="#1A1A1A"/>
</svg>
