<svg width="25" height="24" viewBox="0 0 25 24" fill="none" xmlns="http://www.w3.org/2000/svg">
<path fill-rule="evenodd" clip-rule="evenodd" d="M16.6639 1C17.658 1 18.4639 1.80589 18.4639 2.8V21.2C18.4639 22.1941 17.658 23 16.6639 23H8.26387C7.26975 23 6.46387 22.1941 6.46387 21.2V2.8C6.46387 1.80589 7.26975 1 8.26387 1H16.6639ZM17.2639 19.2H7.66387V21.2C7.66387 21.4982 7.88146 21.7456 8.16654 21.7921L8.26387 21.8H16.6639C16.9621 21.8 17.2095 21.5824 17.256 21.2973L17.2639 21.2V19.2ZM13.4639 21V20H11.4639V21H13.4639ZM17.2639 5.2H7.66387V18H17.2639V5.2ZM8.26387 2.2H16.6639L16.7612 2.20785C17.0463 2.25435 17.2639 2.50177 17.2639 2.8V4H7.66387V2.8L7.67172 2.70268C7.71822 2.41759 7.96563 2.2 8.26387 2.2Z" fill="#1A1A1A"/>
</svg>
