<svg width="25" height="24" viewBox="0 0 25 24" fill="none" xmlns="http://www.w3.org/2000/svg">
<path fill-rule="evenodd" clip-rule="evenodd" d="M10.6542 3.95906C10.7592 3.40058 11.2481 3 11.8127 3H13.1163C13.6809 3 14.1688 3.40142 14.2746 3.95857V3.95857L14.6234 5.79245C14.8618 5.87576 15.0954 5.97344 15.3234 6.08449L16.8699 5.03334C17.3379 4.71563 17.9665 4.77393 18.3673 5.1747L19.2889 6.09628C19.6872 6.49619 19.749 7.12505 19.4304 7.59431L18.3787 9.14023C18.4896 9.368 18.5873 9.60116 18.6708 9.83937L20.5052 10.189C21.0613 10.2948 21.4637 10.7812 21.4637 11.3477V12.6514C21.4637 13.218 21.0615 13.7044 20.5052 13.8101L18.6711 14.1597C18.5877 14.3979 18.49 14.6315 18.3789 14.8598L19.43 16.4051V16.4051C19.7489 16.8736 19.6881 17.5036 19.2889 17.9028L18.3673 18.8244C17.9674 19.2243 17.3386 19.2855 16.8692 18.9653L15.3235 17.9147C15.0956 18.0259 14.8619 18.1239 14.6233 18.2075L14.2747 20.0404V20.0404C14.1689 20.597 13.6815 21 13.1154 21H11.8127C11.2471 21 10.759 20.5975 10.6542 20.04V20.04L10.3046 18.2068C10.0665 18.1235 9.83294 18.0258 9.6047 17.9146L8.0595 18.9649V18.9649C7.59108 19.285 6.9607 19.2244 6.56156 18.8243V18.8243L5.64077 17.9035V17.9035C5.23977 17.5037 5.17794 16.8771 5.49674 16.4075C5.68564 16.1299 5.93267 15.7667 6.1549 15.4399C6.30667 15.2168 6.44704 15.0104 6.54977 14.8594C6.43875 14.6315 6.34081 14.398 6.25752 14.1596L4.42405 13.8101C3.867 13.7046 3.46436 13.2183 3.46436 12.6514V11.3486C3.46436 10.7813 3.8665 10.2947 4.42382 10.189V10.189L6.25723 9.83955C6.34067 9.60137 6.43851 9.36814 6.54938 9.14053L5.49791 7.5947C5.18002 7.1264 5.23822 6.49701 5.64033 6.09604V6.09604L6.56166 5.1747C6.96201 4.77435 7.59044 4.71505 8.05818 5.03334L9.60486 6.08462C9.83306 5.97359 10.0666 5.87591 10.3047 5.79258L10.6542 3.95906V3.95906ZM11.8127 4C11.7244 4 11.6516 4.06244 11.6363 4.14409L11.636 4.14573L11.2325 6.26268C11.2172 6.34274 11.1827 6.41784 11.1318 6.48147C11.1106 6.5079 11.0918 6.52669 11.0858 6.53263L11.085 6.5334C11.0263 6.59217 10.9538 6.63535 10.8741 6.65903C10.5116 6.76681 10.1571 6.91513 9.81477 7.10072C9.74167 7.14035 9.65986 7.16111 9.57672 7.16111C9.57672 7.16111 9.56189 7.16121 9.54549 7.16043C9.52673 7.15954 9.49832 7.15728 9.46447 7.15051C9.39902 7.13742 9.33685 7.11134 9.28164 7.07381L7.49664 5.86055C7.42578 5.8123 7.32932 5.82081 7.2681 5.88203L6.34652 6.80361C6.28561 6.86429 6.27551 6.9603 6.32419 7.03222V7.03222L7.53822 8.81703C7.58965 8.89265 7.61928 8.98078 7.62412 9.07178C7.63183 9.16792 7.61161 9.26471 7.56525 9.35022C7.37937 9.69307 7.23035 10.0475 7.1228 10.4101C7.09912 10.4899 7.05587 10.5626 6.99699 10.6215C6.99699 10.6215 6.96992 10.6496 6.93362 10.6768C6.87272 10.7225 6.8022 10.7537 6.72744 10.7679L4.61049 11.1714C4.52551 11.1875 4.46372 11.2611 4.46372 11.3486V12.6514C4.46372 12.7376 4.52455 12.8114 4.60992 12.8276L6.72744 13.2312C6.82109 13.2491 6.90758 13.2933 6.97678 13.3586C7.04638 13.4206 7.09743 13.5009 7.1239 13.5906C7.23046 13.9518 7.37934 14.306 7.56525 14.6489C7.58442 14.6842 7.59923 14.7217 7.60939 14.7605C7.65004 14.9037 7.6249 15.058 7.53998 15.1811C7.52067 15.2092 7.28108 15.5614 6.99664 15.9797C6.77119 16.3112 6.51757 16.6841 6.3231 16.9699C6.27517 17.0405 6.28372 17.1329 6.34583 17.1948L7.2681 18.1171C7.3287 18.1779 7.4254 18.1873 7.49532 18.1395L7.49664 18.1386L9.28164 16.9253C9.35784 16.8735 9.44672 16.8439 9.53842 16.8395C9.63409 16.8321 9.7302 16.8525 9.81507 16.8985C10.1598 17.0857 10.5166 17.2348 10.8813 17.3425C11.0608 17.3955 11.1956 17.5444 11.2307 17.7283L11.6363 19.855C11.6518 19.9376 11.7254 20 11.8127 20H13.1154C13.2024 20 13.2769 19.9377 13.2929 19.8537L13.6955 17.7366C13.7143 17.638 13.7623 17.5474 13.8332 17.4764L13.843 17.4666C13.9019 17.4078 13.9745 17.3645 14.0542 17.3409C14.4169 17.2333 14.7712 17.0843 15.1129 16.8986C15.1978 16.8525 15.2939 16.8321 15.3897 16.8395C15.4814 16.8439 15.5702 16.8735 15.6464 16.9253L17.4314 18.1386C17.5024 18.187 17.5991 18.1788 17.6609 18.1171L18.5825 17.1955C18.6431 17.1349 18.6519 17.0383 18.6042 16.9682L17.3899 15.183C17.3334 15.1 17.3033 15.002 17.3033 14.9016V14.8874C17.3033 14.8042 17.324 14.7221 17.3637 14.6489C17.5493 14.3066 17.6976 13.9521 17.8054 13.5896C17.8291 13.5099 17.8723 13.4373 17.9311 13.3785C17.936 13.3736 17.9553 13.354 17.983 13.3318C18.0466 13.281 18.1216 13.2464 18.2015 13.2312L20.3185 12.8277C20.4028 12.8117 20.4644 12.7379 20.4644 12.6514V11.3477C20.4644 11.2612 20.4031 11.1875 20.3188 11.1715L18.2015 10.7679C18.1438 10.7569 18.0885 10.7358 18.0381 10.7056C17.9783 10.6697 17.9383 10.6288 17.9318 10.6222L17.9311 10.6215C17.8722 10.5626 17.829 10.49 17.8053 10.4102C17.6969 10.0449 17.547 9.68881 17.3594 9.34336C17.2701 9.17881 17.2801 8.97808 17.3854 8.82326L18.6037 7.03243V7.03243C18.6518 6.9614 18.6433 6.86496 18.5821 6.80323V6.80323L17.6609 5.88203C17.6 5.82112 17.5036 5.81159 17.4312 5.86072L15.6464 7.07381C15.5722 7.12425 15.486 7.15366 15.3968 7.15924C15.3944 7.15943 15.3917 7.15964 15.3888 7.15983C15.3794 7.16047 15.3666 7.16111 15.3514 7.16111C15.2681 7.16111 15.1861 7.14027 15.1129 7.10048C14.7718 6.91511 14.4175 6.76688 14.0542 6.65912C13.9745 6.63546 13.9019 6.59225 13.843 6.5334L13.8423 6.53264C13.8363 6.52666 13.8175 6.50789 13.7963 6.48147C13.7454 6.41779 13.7108 6.34261 13.6955 6.26248L13.2929 4.14553C13.2771 4.06212 13.203 4 13.1163 4H11.8127ZM15.3657 16.8389C15.3657 16.8389 15.3661 16.8388 15.3711 16.8389ZM9.56241 16.8389L9.55697 16.8389ZM12.464 10C11.3587 10 10.4637 10.8954 10.4637 12C10.4637 13.1046 11.3587 14 12.464 14C13.5694 14 14.4644 13.1046 14.4644 12C14.4644 10.8954 13.5694 10 12.464 10ZM9.46436 12C9.46436 10.3426 10.8074 9 12.464 9C14.1207 9 15.4637 10.3426 15.4637 12C15.4637 13.6574 14.1207 15 12.464 15C10.8074 15 9.46436 13.6574 9.46436 12Z" fill="#1A1A1A"/>
</svg>
