<svg width="25" height="24" viewBox="0 0 25 24" fill="none" xmlns="http://www.w3.org/2000/svg">
<path fill-rule="evenodd" clip-rule="evenodd" d="M3.471 8.93228L9.31682 8.08786L11.9334 2.82742C12.1504 2.39086 12.7773 2.39086 12.9943 2.82742L15.6099 8.08786L21.4567 8.93228C21.9096 8.99762 22.1085 9.51772 21.8476 9.86306L21.7846 9.93416L17.5522 14.0291L18.5522 19.812C18.6299 20.2619 18.189 20.6116 17.776 20.4669L17.6939 20.4312L12.4639 17.7012L7.23382 20.4312C6.82696 20.6436 6.35574 20.3353 6.36672 19.9005L6.3755 19.812L7.37456 14.0291L3.14315 9.93416C2.81547 9.617 2.96239 9.08011 3.37792 8.95301L3.471 8.93228ZM14.6861 8.88542L12.4639 4.41483L10.2417 8.88542C10.1555 9.05878 9.98894 9.17894 9.79627 9.20674L4.82695 9.9234L8.42288 13.4038C8.53906 13.5162 8.6026 13.67 8.60151 13.8284L8.593 13.9237L7.74428 18.8368L12.1886 16.5175C12.3322 16.4426 12.4991 16.4301 12.6505 16.4801L12.7391 16.5175L17.1825 18.8368L16.3347 13.9237C16.3073 13.7649 16.3469 13.6034 16.4416 13.4759L16.5049 13.4038L20.0998 9.9234L15.1315 9.20674C14.9709 9.18358 14.8285 9.09627 14.7356 8.96749L14.6861 8.88542Z" fill="#1A1A1A"/>
</svg>
