<svg width="25" height="24" viewBox="0 0 25 24" fill="none" xmlns="http://www.w3.org/2000/svg">
<path fill-rule="evenodd" clip-rule="evenodd" d="M10.7634 3C14.7948 3 18.0629 6.26811 18.0629 10.2995C18.0629 12.1048 17.4075 13.757 16.3218 15.0313L21.4639 20.1742L20.638 21L15.4951 15.8579C14.2209 16.9437 12.5687 17.599 10.7634 17.599C6.73197 17.599 3.46387 14.3309 3.46387 10.2995C3.46387 6.26811 6.73197 3 10.7634 3ZM10.7626 4.16792C7.37626 4.16792 4.63105 6.91313 4.63105 10.2995C4.63105 13.6859 7.37626 16.4311 10.7626 16.4311C14.149 16.4311 16.8942 13.6859 16.8942 10.2995C16.8942 6.91313 14.149 4.16792 10.7626 4.16792ZM11.25 9.81288V7.37971H10.2768V9.81288H7.84358V10.7862H10.2768V13.2193H11.25V10.7862H13.6832V9.81288H11.25Z" fill="#1A1A1A"/>
</svg>
