<svg width="25" height="24" viewBox="0 0 25 24" fill="none" xmlns="http://www.w3.org/2000/svg">
<path fill-rule="evenodd" clip-rule="evenodd" d="M20.9639 6C20.9639 4.34315 19.6207 3 17.9639 3C16.307 3 14.9639 4.34315 14.9639 6C14.9639 6.29957 15.0078 6.58888 15.0895 6.86185L9.27314 10.0849C8.72286 9.42207 7.89265 9 6.96387 9C5.30701 9 3.96387 10.3431 3.96387 12C3.96387 13.6569 5.30701 15 6.96387 15C7.8936 15 8.72455 14.5771 9.27483 13.9131L15.0901 17.1361C15.008 17.4097 14.9639 17.6997 14.9639 18C14.9639 19.6569 16.307 21 17.9639 21C19.6207 21 20.9639 19.6569 20.9639 18C20.9639 16.3431 19.6207 15 17.9639 15C17.0375 15 16.2091 15.4199 15.6588 16.0798L9.84034 12.8548C9.92072 12.5839 9.96387 12.297 9.96387 12C9.96387 11.7023 9.9205 11.4147 9.83974 11.1432L15.6571 7.91817C16.2074 8.57922 17.0365 9 17.9639 9C19.6207 9 20.9639 7.65685 20.9639 6ZM16.1639 18C16.1639 17.0059 16.9698 16.2 17.9639 16.2C18.958 16.2 19.7639 17.0059 19.7639 18C19.7639 18.9941 18.958 19.8 17.9639 19.8C16.9698 19.8 16.1639 18.9941 16.1639 18ZM6.9631 10.2C5.96899 10.2 5.1631 11.0059 5.1631 12C5.1631 12.9941 5.96899 13.8 6.9631 13.8C7.95722 13.8 8.7631 12.9941 8.7631 12C8.7631 11.0059 7.95722 10.2 6.9631 10.2ZM16.1639 6C16.1639 5.00589 16.9698 4.2 17.9639 4.2C18.958 4.2 19.7639 5.00589 19.7639 6C19.7639 6.99411 18.958 7.8 17.9639 7.8C16.9698 7.8 16.1639 6.99411 16.1639 6Z" fill="#1A1A1A"/>
</svg>
