<svg width="25" height="24" viewBox="0 0 25 24" fill="none" xmlns="http://www.w3.org/2000/svg">
<path fill-rule="evenodd" clip-rule="evenodd" d="M21.4134 3.50477C21.4808 3.68326 21.4807 3.88031 21.413 4.0587L15.1714 20.4964C15.0183 20.8995 14.5679 21.1021 14.1652 20.9488C13.9549 20.8687 13.7893 20.7015 13.7111 20.4902L11.0855 13.3945L3.97185 10.7423C3.56819 10.5918 3.3628 10.1421 3.5131 9.73794C3.59163 9.52674 3.75746 9.3598 3.96796 9.28004L20.4079 3.05076C20.8108 2.89811 21.2609 3.10138 21.4134 3.50477ZM18.645 4.96962L5.35359 10.0074L11.373 12.2512L18.645 4.96962ZM12.2127 13.0671L19.5177 5.75238L14.4475 19.1064L12.2127 13.0671Z" fill="#1A1A1A"/>
</svg>
