<svg width="25" height="24" viewBox="0 0 25 24" fill="none" xmlns="http://www.w3.org/2000/svg">
<path fill-rule="evenodd" clip-rule="evenodd" d="M8.46377 9.8C9.45788 9.8 10.2638 8.99411 10.2638 8C10.2638 7.00589 9.45788 6.2 8.46377 6.2C7.46966 6.2 6.66377 7.00589 6.66377 8C6.66377 8.99411 7.46966 9.8 8.46377 9.8ZM16.4638 9.8C17.4579 9.8 18.2638 8.99411 18.2638 8C18.2638 7.00589 17.4579 6.2 16.4638 6.2C15.4697 6.2 14.6638 7.00589 14.6638 8C14.6638 8.99411 15.4697 9.8 16.4638 9.8ZM8.46377 11C10.1206 11 11.4638 9.65685 11.4638 8C11.4638 6.34315 10.1206 5 8.46377 5C6.80692 5 5.46377 6.34315 5.46377 8C5.46377 9.65685 6.80692 11 8.46377 11ZM16.4638 11C18.1206 11 19.4638 9.65685 19.4638 8C19.4638 6.34315 18.1206 5 16.4638 5C14.8069 5 13.4638 6.34315 13.4638 8C13.4638 9.65685 14.8069 11 16.4638 11Z" fill="#1A1A1A"/>
<path fill-rule="evenodd" clip-rule="evenodd" d="M1.86377 17C1.86377 14.4595 3.92326 12.4 6.46377 12.4H10.4638C13.0043 12.4 15.0638 14.4595 15.0638 17V19H13.8638V17C13.8638 15.1222 12.3415 13.6 10.4638 13.6H6.46377C4.586 13.6 3.06377 15.1222 3.06377 17V19H1.86377V17ZM18.4638 13.6H14.9638V12.4H18.4638C21.0043 12.4 23.0638 14.4595 23.0638 17V19H21.8638V17C21.8638 15.1222 20.3415 13.6 18.4638 13.6Z" fill="#1A1A1A"/>
</svg>
