<svg width="25" height="24" viewBox="0 0 25 24" fill="none" xmlns="http://www.w3.org/2000/svg">
<path fill-rule="evenodd" clip-rule="evenodd" d="M21.4639 5.55001H8.46387V4.45001H21.4639V5.55001Z" fill="#1A1A1A"/>
<path fill-rule="evenodd" clip-rule="evenodd" d="M21.4639 12.55H8.46387V11.45H21.4639V12.55Z" fill="#1A1A1A"/>
<path fill-rule="evenodd" clip-rule="evenodd" d="M21.4639 19.55H8.46387V18.45H21.4639V19.55Z" fill="#1A1A1A"/>
<path d="M6.46387 5C6.46387 5.55228 6.01615 6 5.46387 6C4.91158 6 4.46387 5.55228 4.46387 5C4.46387 4.44772 4.91158 4 5.46387 4C6.01615 4 6.46387 4.44772 6.46387 5Z" fill="#1A1A1A"/>
<path d="M6.46387 19C6.46387 19.5523 6.01615 20 5.46387 20C4.91158 20 4.46387 19.5523 4.46387 19C4.46387 18.4477 4.91158 18 5.46387 18C6.01615 18 6.46387 18.4477 6.46387 19Z" fill="#1A1A1A"/>
<path fill-rule="evenodd" clip-rule="evenodd" d="M7.87542 10.7791L5.23854 13.4854L3.20361 11.7412L3.72425 11.1338L5.18932 12.3895L7.30244 10.2208L7.87542 10.7791Z" fill="#1A1A1A"/>
</svg>
