<svg width="25" height="24" viewBox="0 0 25 24" fill="none" xmlns="http://www.w3.org/2000/svg">
<path fill-rule="evenodd" clip-rule="evenodd" d="M10.9522 9.43736C10.4035 7.64318 10.8261 5.66781 12.1157 4.25376L12.2885 4.07285C13.9921 2.36814 16.6076 2.01973 18.6839 3.17185C19.0324 3.36522 19.099 3.83834 18.8175 4.12039L16.5476 6.39424C16.127 6.81416 16.127 7.49576 16.5485 7.91665C16.9684 8.33777 17.6505 8.33777 18.0713 7.91572L20.3434 5.64654C20.6254 5.36491 21.0986 5.43142 21.292 5.77987C22.4447 7.85634 22.0964 10.4709 20.392 12.1764C18.9674 13.6 16.8976 14.085 15.0261 13.5118L14.9438 13.4846L7.74961 20.6792C6.70083 21.728 5.02821 21.7717 3.92501 20.8101L3.78444 20.679C2.69031 19.5836 2.69031 17.8099 3.78465 16.7143L10.9788 9.51756L10.9522 9.43736ZM17.3458 3.89556L17.3008 3.88105C15.859 3.44078 14.2482 3.80953 13.1373 4.9211C11.9395 6.11811 11.5973 7.90386 12.2282 9.44665C12.3196 9.67034 12.2679 9.92707 12.0971 10.098L4.63346 17.5626C4.0073 18.1895 4.0073 19.2041 4.63272 19.8302C5.26057 20.4566 6.27517 20.4566 6.90111 19.8307L14.3659 12.3668C14.5369 12.1959 14.7938 12.1443 15.0175 12.2359C16.5594 12.8672 18.3455 12.525 19.5435 11.3279C20.655 10.2156 21.0237 8.60507 20.5831 7.16323L20.5678 7.11756L18.9201 8.76389C18.0737 9.6129 16.7238 9.65333 15.8302 8.88601L15.6997 8.76485C14.8097 7.87616 14.8097 6.43376 15.699 5.54577L17.3458 3.89556Z" fill="#1A1A1A"/>
</svg>
