<svg width="25" height="24" viewBox="0 0 25 24" fill="none" xmlns="http://www.w3.org/2000/svg">
<path fill-rule="evenodd" clip-rule="evenodd" d="M12.4636 3C14.6498 3 16.422 4.79086 16.422 7C16.422 9.20914 14.6498 11 12.4636 11C10.2775 11 8.50529 9.20914 8.50529 7C8.50529 4.79086 10.2775 3 12.4636 3ZM16.422 12.4C19.4097 12.4 21.8451 14.7892 21.9594 17.7801L21.9636 18V21H20.7761V18C20.7761 15.6414 18.9397 13.7163 16.6329 13.6051L16.422 13.6H8.50529C6.17128 13.6 4.26619 15.4558 4.15614 17.7868L4.15112 18V21H2.96362V18C2.96362 14.9808 5.32797 12.5197 8.28769 12.4042L8.50529 12.4H16.422ZM9.69279 7C9.69279 5.4536 10.9333 4.2 12.4636 4.2C13.9939 4.2 15.2345 5.4536 15.2345 7C15.2345 8.5464 13.9939 9.8 12.4636 9.8C10.9333 9.8 9.69279 8.5464 9.69279 7Z" fill="#1A1A1A"/>
</svg>
