<svg width="25" height="24" viewBox="0 0 25 24" fill="none" xmlns="http://www.w3.org/2000/svg">
<path fill-rule="evenodd" clip-rule="evenodd" d="M20.9575 19.2674L20.9639 19.136V15.044H19.7778V19.136L19.7708 19.1878C19.7523 19.2538 19.6996 19.3057 19.6327 19.3239L19.5801 19.3308H5.34759L5.29504 19.3239C5.22811 19.3057 5.17538 19.2538 5.15697 19.1878L5.14991 19.136V15.044H3.96387V19.136L3.9702 19.2674C4.03306 19.9158 4.55649 20.4318 5.21433 20.4938L5.34759 20.5H19.5801L19.7134 20.4938C20.3712 20.4318 20.8947 19.9158 20.9575 19.2674ZM16.9864 9.61154L17.8251 8.78483L12.4639 3.5L7.10268 8.78483L7.94134 9.61154L11.8718 5.73795L11.8708 16.0182H13.0569L13.0579 5.73795L16.9864 9.61154Z" fill="#1A1A1A"/>
</svg>
