<svg width="25" height="24" viewBox="0 0 25 24" fill="none" xmlns="http://www.w3.org/2000/svg">
<path fill-rule="evenodd" clip-rule="evenodd" d="M12.4639 2C14.5589 2 16.287 3.60347 16.5337 5.67334L15.3211 5.67431C15.0845 4.28272 13.8953 3.22449 12.4639 3.22449C10.9194 3.22449 9.65699 4.45641 9.56879 6.0098L9.56387 6.18367L9.56287 8.73469H19.08C19.5681 8.73469 19.9639 9.18595 19.9639 9.74245V20.9922C19.9639 21.5487 19.5681 22 19.08 22H5.84771C5.35964 22 4.96387 21.5487 4.96387 20.9922V9.74245C4.96387 9.18595 5.35964 8.73469 5.84771 8.73469H8.36287L8.36387 6.18367C8.36387 3.87309 10.1995 2 12.4639 2ZM6.16387 9.95918V20.7755H18.7639V9.95918H6.16387ZM13.7139 15.25C13.7139 14.5596 13.1542 14 12.4639 14C11.7735 14 11.2139 14.5596 11.2139 15.25C11.2139 15.9404 11.7735 16.5 12.4639 16.5C13.1542 16.5 13.7139 15.9404 13.7139 15.25Z" fill="#1A1A1A"/>
</svg>
