<svg width="36" height="36" viewBox="0 0 36 36" fill="none" xmlns="http://www.w3.org/2000/svg">
<path d="M27.3333 22V27.3333H8.66667V22H27.3333ZM28.6667 19.3333H7.33333C6.6 19.3333 6 19.9333 6 20.6667V28.6667C6 29.4 6.6 30 7.33333 30H28.6667C29.4 30 30 29.4 30 28.6667V20.6667C30 19.9333 29.4 19.3333 28.6667 19.3333ZM11.3333 26.6667C10.24 26.6667 9.33333 25.7733 9.33333 24.6667C9.33333 23.56 10.24 22.6667 11.3333 22.6667C12.4267 22.6667 13.3333 23.56 13.3333 24.6667C13.3333 25.7733 12.44 26.6667 11.3333 26.6667ZM27.3333 8.66667V14H8.66667V8.66667H27.3333ZM28.6667 6H7.33333C6.6 6 6 6.6 6 7.33333V15.3333C6 16.0667 6.6 16.6667 7.33333 16.6667H28.6667C29.4 16.6667 30 16.0667 30 15.3333V7.33333C30 6.6 29.4 6 28.6667 6ZM11.3333 13.3333C10.24 13.3333 9.33333 12.44 9.33333 11.3333C9.33333 10.2267 10.24 9.33333 11.3333 9.33333C12.4267 9.33333 13.3333 10.24 13.3333 11.3333C13.3333 12.4267 12.44 13.3333 11.3333 13.3333Z" fill="black"/>
</svg>
