<svg width="29" height="28" viewBox="0 0 29 28" fill="none" xmlns="http://www.w3.org/2000/svg">
<path fill-rule="evenodd" clip-rule="evenodd" d="M16.6821 4.50002C16.6821 3.34023 15.7419 2.40002 14.5821 2.40002C13.4223 2.40002 12.4821 3.34023 12.4821 4.50002L12.4874 4.65C12.5498 5.5351 13.1608 6.26877 13.9824 6.51315L13.9821 8.00002H5.58208C5.0298 8.00002 4.58208 8.44774 4.58208 9.00002V22C4.58208 22.5523 5.0298 23 5.58208 23H23.5821C24.1344 23 24.5821 22.5523 24.5821 22V9.00002C24.5821 8.44774 24.1344 8.00002 23.5821 8.00002H15.1821L15.1828 6.51285C16.0499 6.25446 16.6821 5.45107 16.6821 4.50002ZM5.78208 9.20003H23.3821V21.8H5.78208V9.20003ZM12.3366 16.5001C12.5649 17.5299 13.4836 18.3 14.5821 18.3C15.6806 18.3 16.5992 17.5299 16.8276 16.5001L18.0466 16.5006C17.8037 18.1965 16.3451 19.5 14.5821 19.5C12.819 19.5 11.3605 18.1965 11.1176 16.5006L12.3366 16.5001ZM26.7821 18V13H25.5821V18H26.7821ZM3.58208 13V18H2.38208V13H3.58208ZM13.0821 13.5C13.0821 12.9477 12.6344 12.5 12.0821 12.5C11.5298 12.5 11.0821 12.9477 11.0821 13.5C11.0821 14.0523 11.5298 14.5 12.0821 14.5C12.6344 14.5 13.0821 14.0523 13.0821 13.5ZM17.0821 12.5C17.6344 12.5 18.0821 12.9477 18.0821 13.5C18.0821 14.0523 17.6344 14.5 17.0821 14.5C16.5298 14.5 16.0821 14.0523 16.0821 13.5C16.0821 12.9477 16.5298 12.5 17.0821 12.5ZM13.6821 4.50002C13.6821 4.00297 14.085 3.60002 14.5821 3.60002C15.0791 3.60002 15.4821 4.00297 15.4821 4.50002C15.4821 4.99708 15.0791 5.40002 14.5821 5.40002C14.085 5.40002 13.6821 4.99708 13.6821 4.50002Z" fill="#1A1A1A"/>
</svg>
