<svg width="29" height="28" viewBox="0 0 29 28" fill="none" xmlns="http://www.w3.org/2000/svg">
<path fill-rule="evenodd" clip-rule="evenodd" d="M21.7591 6C22.2009 6 22.5591 6.35817 22.5591 6.8V22.2C22.5591 22.6418 22.2009 23 21.7591 23H19.3591C18.9173 23 18.5591 22.6418 18.5591 22.2V6.8C18.5591 6.35817 18.9173 6 19.3591 6H21.7591ZM16.5591 11.8C16.5591 11.3582 16.2009 11 15.7591 11H13.3591C12.9173 11 12.5591 11.3582 12.5591 11.8V22.2C12.5591 22.6418 12.9173 23 13.3591 23H15.7591C16.2009 23 16.5591 22.6418 16.5591 22.2V11.8ZM10.5591 15.8C10.5591 15.3582 10.2009 15 9.75908 15H7.35908C6.91725 15 6.55908 15.3582 6.55908 15.8V22.2C6.55908 22.6418 6.91725 23 7.35908 23H9.75908C10.2009 23 10.5591 22.6418 10.5591 22.2V15.8ZM7.75908 16.2H9.35908V21.8H7.75908V16.2ZM15.3591 12.2H13.7591V21.8H15.3591V12.2ZM19.7591 7.2H21.3591V21.8H19.7591V7.2Z" fill="#1A1A1A"/>
</svg>
