<svg width="29" height="28" viewBox="0 0 29 28" fill="none" xmlns="http://www.w3.org/2000/svg">
<path fill-rule="evenodd" clip-rule="evenodd" d="M23.2803 12.1501L15.5803 5.00367C15.2734 4.71883 14.7988 4.71883 14.4919 5.00367L6.79192 12.1501C6.62882 12.3014 6.53613 12.5139 6.53613 12.7364V22.1986C6.53613 22.6404 6.89431 22.9986 7.33613 22.9986H12.7361C13.178 22.9986 13.5361 22.6404 13.5361 22.1986V18.9986H16.5361V22.1986C16.5361 22.6404 16.8943 22.9986 17.3361 22.9986H22.7361C23.178 22.9986 23.5361 22.6404 23.5361 22.1986V12.7364C23.5361 12.5139 23.4434 12.3014 23.2803 12.1501ZM7.73613 12.9106L15.0361 6.13558L22.3361 12.9116V21.7986H17.7361V18.9986L17.7299 18.8759C17.6685 18.2708 17.1575 17.7986 16.5361 17.7986H13.5361L13.4134 17.8048C12.8083 17.8662 12.3361 18.3773 12.3361 18.9986V21.7986H7.73613V12.9106Z" fill="#1A1A1A"/>
</svg>
