<svg width="29" height="28" viewBox="0 0 29 28" fill="none" xmlns="http://www.w3.org/2000/svg">
<path fill-rule="evenodd" clip-rule="evenodd" d="M14.6049 5C16.814 5 18.6049 6.79086 18.6049 9C18.6049 11.2091 16.814 13 14.6049 13C12.3957 13 10.6049 11.2091 10.6049 9C10.6049 6.79086 12.3957 5 14.6049 5ZM18.6049 14.4C21.624 14.4 24.0852 16.7892 24.2006 19.7801L24.2049 20V23H23.0049V20C23.0049 17.6414 21.1491 15.7163 18.8181 15.6051L18.6049 15.6H10.6049C8.2463 15.6 6.32116 17.4558 6.20996 19.7868L6.20488 20V23H5.00488V20C5.00488 16.9808 7.39412 14.5197 10.385 14.4042L10.6049 14.4H18.6049ZM11.8049 9C11.8049 7.4536 13.0585 6.2 14.6049 6.2C16.1513 6.2 17.4049 7.4536 17.4049 9C17.4049 10.5464 16.1513 11.8 14.6049 11.8C13.0585 11.8 11.8049 10.5464 11.8049 9Z" fill="#1A1A1A"/>
</svg>
