<svg width="18" height="12" viewBox="0 0 18 12" fill="none" xmlns="http://www.w3.org/2000/svg">
<path d="M9 1.93023C11.8425 1.93023 14.3775 3.56488 15.615 6.15116C14.3775 8.73744 11.8425 10.3721 9 10.3721C6.1575 10.3721 3.6225 8.73744 2.385 6.15116C3.6225 3.56488 6.1575 1.93023 9 1.93023ZM9 0.395348C5.25 0.395348 2.0475 2.78209 0.75 6.15116C2.0475 9.52023 5.25 11.907 9 11.907C12.75 11.907 15.9525 9.52023 17.25 6.15116C15.9525 2.78209 12.75 0.395348 9 0.395348ZM9 4.23256C10.035 4.23256 10.875 5.09209 10.875 6.15116C10.875 7.21023 10.035 8.06977 9 8.06977C7.965 8.06977 7.125 7.21023 7.125 6.15116C7.125 5.09209 7.965 4.23256 9 4.23256ZM9 2.69767C7.14 2.69767 5.625 4.24791 5.625 6.15116C5.625 8.05442 7.14 9.60465 9 9.60465C10.86 9.60465 12.375 8.05442 12.375 6.15116C12.375 4.24791 10.86 2.69767 9 2.69767Z" fill="#666666"/>
</svg>
