<svg width="36" height="36" viewBox="0 0 36 36" fill="none" xmlns="http://www.w3.org/2000/svg">
<path fill-rule="evenodd" clip-rule="evenodd" d="M17.9954 4.5C23.0255 4.5 27.1607 8.46651 27.3701 13.4922L27.6456 20.1035C27.7117 21.6911 28.0297 23.2581 28.5876 24.7459L29.2354 26.4733C29.5263 27.249 29.1333 28.1136 28.3576 28.4045C28.1892 28.4676 28.0108 28.5 27.8309 28.5H8.15991C7.33148 28.5 6.65991 27.8284 6.65991 27C6.65991 26.8201 6.69226 26.6417 6.75542 26.4733L7.40321 24.7459C7.96113 23.2581 8.27912 21.6911 8.34527 20.1035L8.62074 13.4922C8.83014 8.46651 12.9654 4.5 17.9954 4.5ZM22.4954 30V31.8H14.9954V30H22.4954ZM10.4398 13.2397C10.7696 9.33464 14.0402 6.3 17.9954 6.3C22.0605 6.3 25.4024 9.50558 25.5716 13.5671L25.8471 20.1784L25.8881 20.844C26.0144 22.3939 26.3555 23.9199 26.9022 25.3779L27.3974 26.7H8.59191L9.0886 25.3779L9.31031 24.749C9.7981 23.2724 10.0789 21.7343 10.1437 20.1784L10.4192 13.5671L10.4398 13.2397Z" fill="#1A1A1A"/>
<circle cx="27" cy="10" r="5" fill="#E0205C"/>
</svg>
