<svg width="36" height="36" viewBox="0 0 36 36" fill="none" xmlns="http://www.w3.org/2000/svg">
<path d="M18.4 6C13.756 6 10 9.756 10 14.4C10 20.7 18.4 30 18.4 30C18.4 30 26.8 20.7 26.8 14.4C26.8 9.756 23.044 6 18.4 6ZM12.4 14.4C12.4 11.088 15.088 8.4 18.4 8.4C21.712 8.4 24.4 11.088 24.4 14.4C24.4 17.856 20.944 23.028 18.4 26.256C15.904 23.052 12.4 17.82 12.4 14.4Z" fill="black"/>
<path d="M18.3999 17.4C20.0568 17.4 21.3999 16.0569 21.3999 14.4C21.3999 12.7432 20.0568 11.4 18.3999 11.4C16.743 11.4 15.3999 12.7432 15.3999 14.4C15.3999 16.0569 16.743 17.4 18.3999 17.4Z" fill="black"/>
</svg>
